<mxfile host="app.diagrams.net" agent="Mozilla/5.0 (Windows NT 10.0; Win64; x64) AppleWebKit/537.36 (KHTML, like Gecko) Chrome/138.0.0.0 Safari/537.36" version="28.1.2">
  <diagram name="Страница — 1" id="VUrSmvgZU85t7MGjWtl5">
    <mxGraphModel dx="389" dy="214" grid="1" gridSize="5" guides="1" tooltips="1" connect="1" arrows="1" fold="1" page="1" pageScale="1" pageWidth="827" pageHeight="1169" math="0" shadow="0">
      <root>
        <mxCell id="0" />
        <mxCell id="1" parent="0" />
        <mxCell id="pDBd_BljUTlWo_4ouGJL-95" value="" style="endArrow=none;html=1;rounded=0;" parent="1" edge="1">
          <mxGeometry width="50" height="50" relative="1" as="geometry">
            <mxPoint x="50" y="115" as="sourcePoint" />
            <mxPoint x="50" y="75" as="targetPoint" />
          </mxGeometry>
        </mxCell>
        <mxCell id="pDBd_BljUTlWo_4ouGJL-96" value="" style="endArrow=none;html=1;rounded=0;" parent="1" edge="1">
          <mxGeometry width="50" height="50" relative="1" as="geometry">
            <mxPoint x="50" y="115" as="sourcePoint" />
            <mxPoint x="470" y="115" as="targetPoint" />
          </mxGeometry>
        </mxCell>
        <mxCell id="pDBd_BljUTlWo_4ouGJL-113" value="" style="endArrow=none;html=1;rounded=0;" parent="1" edge="1">
          <mxGeometry width="50" height="50" relative="1" as="geometry">
            <mxPoint x="50" y="70" as="sourcePoint" />
            <mxPoint x="50" y="30" as="targetPoint" />
          </mxGeometry>
        </mxCell>
        <mxCell id="pDBd_BljUTlWo_4ouGJL-114" value="" style="endArrow=none;html=1;rounded=0;" parent="1" edge="1">
          <mxGeometry width="50" height="50" relative="1" as="geometry">
            <mxPoint x="50" y="70" as="sourcePoint" />
            <mxPoint x="470" y="70" as="targetPoint" />
          </mxGeometry>
        </mxCell>
        <mxCell id="pDBd_BljUTlWo_4ouGJL-117" value="" style="endArrow=none;html=1;rounded=0;" parent="1" edge="1">
          <mxGeometry width="50" height="50" relative="1" as="geometry">
            <mxPoint x="50" y="45" as="sourcePoint" />
            <mxPoint x="210" y="45" as="targetPoint" />
          </mxGeometry>
        </mxCell>
        <mxCell id="pDBd_BljUTlWo_4ouGJL-121" value="C" style="edgeLabel;html=1;align=center;verticalAlign=middle;resizable=0;points=[];spacingBottom=20;spacingLeft=28;" parent="1" vertex="1" connectable="0">
          <mxGeometry x="25" y="95" as="geometry" />
        </mxCell>
        <mxCell id="pDBd_BljUTlWo_4ouGJL-122" value="T" style="edgeLabel;html=1;align=center;verticalAlign=middle;resizable=0;points=[];spacingBottom=20;spacingLeft=28;" parent="1" vertex="1" connectable="0">
          <mxGeometry x="25" y="50" as="geometry" />
        </mxCell>
        <mxCell id="shsJbg-5g0WoYL6_JStY-2" value="" style="endArrow=none;html=1;rounded=0;" parent="1" edge="1">
          <mxGeometry width="50" height="50" relative="1" as="geometry">
            <mxPoint x="50" y="161" as="sourcePoint" />
            <mxPoint x="50" y="121" as="targetPoint" />
          </mxGeometry>
        </mxCell>
        <mxCell id="shsJbg-5g0WoYL6_JStY-3" value="" style="endArrow=none;html=1;rounded=0;" parent="1" edge="1">
          <mxGeometry width="50" height="50" relative="1" as="geometry">
            <mxPoint x="50" y="161" as="sourcePoint" />
            <mxPoint x="470" y="161" as="targetPoint" />
          </mxGeometry>
        </mxCell>
        <mxCell id="shsJbg-5g0WoYL6_JStY-10" value="Q" style="edgeLabel;html=1;align=center;verticalAlign=middle;resizable=0;points=[];spacingBottom=20;spacingLeft=28;" parent="1" vertex="1" connectable="0">
          <mxGeometry x="25" y="140" as="geometry" />
        </mxCell>
        <mxCell id="shsJbg-5g0WoYL6_JStY-11" value="" style="endArrow=none;html=1;rounded=0;" parent="1" edge="1">
          <mxGeometry width="50" height="50" relative="1" as="geometry">
            <mxPoint x="50" y="155" as="sourcePoint" />
            <mxPoint x="90" y="155" as="targetPoint" />
          </mxGeometry>
        </mxCell>
        <mxCell id="shsJbg-5g0WoYL6_JStY-12" value="" style="endArrow=none;html=1;rounded=0;" parent="1" edge="1">
          <mxGeometry width="50" height="50" relative="1" as="geometry">
            <mxPoint x="70" y="110" as="sourcePoint" />
            <mxPoint x="70" y="90" as="targetPoint" />
          </mxGeometry>
        </mxCell>
        <mxCell id="shsJbg-5g0WoYL6_JStY-13" value="" style="endArrow=none;html=1;rounded=0;" parent="1" edge="1">
          <mxGeometry width="50" height="50" relative="1" as="geometry">
            <mxPoint x="70" y="90" as="sourcePoint" />
            <mxPoint x="90" y="90" as="targetPoint" />
          </mxGeometry>
        </mxCell>
        <mxCell id="shsJbg-5g0WoYL6_JStY-14" value="" style="endArrow=none;html=1;rounded=0;" parent="1" edge="1">
          <mxGeometry width="50" height="50" relative="1" as="geometry">
            <mxPoint x="90" y="110" as="sourcePoint" />
            <mxPoint x="90" y="90" as="targetPoint" />
          </mxGeometry>
        </mxCell>
        <mxCell id="shsJbg-5g0WoYL6_JStY-15" value="" style="endArrow=none;html=1;rounded=0;" parent="1" edge="1">
          <mxGeometry width="50" height="50" relative="1" as="geometry">
            <mxPoint x="89.99999999999997" y="155" as="sourcePoint" />
            <mxPoint x="89.99999999999997" y="135" as="targetPoint" />
          </mxGeometry>
        </mxCell>
        <mxCell id="shsJbg-5g0WoYL6_JStY-16" value="" style="endArrow=none;html=1;rounded=0;" parent="1" edge="1">
          <mxGeometry width="50" height="50" relative="1" as="geometry">
            <mxPoint x="89.99999999999997" y="135" as="sourcePoint" />
            <mxPoint x="109.99999999999997" y="135" as="targetPoint" />
          </mxGeometry>
        </mxCell>
        <mxCell id="shsJbg-5g0WoYL6_JStY-19" value="" style="endArrow=none;html=1;rounded=0;" parent="1" edge="1">
          <mxGeometry width="50" height="50" relative="1" as="geometry">
            <mxPoint x="110.16" y="135" as="sourcePoint" />
            <mxPoint x="130.16" y="135" as="targetPoint" />
          </mxGeometry>
        </mxCell>
        <mxCell id="shsJbg-5g0WoYL6_JStY-24" value="" style="endArrow=none;html=1;rounded=0;" parent="1" edge="1">
          <mxGeometry width="50" height="50" relative="1" as="geometry">
            <mxPoint x="130.16" y="155" as="sourcePoint" />
            <mxPoint x="130.16" y="135" as="targetPoint" />
          </mxGeometry>
        </mxCell>
        <mxCell id="shsJbg-5g0WoYL6_JStY-25" value="" style="endArrow=none;html=1;rounded=0;" parent="1" edge="1">
          <mxGeometry width="50" height="50" relative="1" as="geometry">
            <mxPoint x="130" y="155" as="sourcePoint" />
            <mxPoint x="170" y="155" as="targetPoint" />
          </mxGeometry>
        </mxCell>
        <mxCell id="shsJbg-5g0WoYL6_JStY-32" value="" style="endArrow=none;html=1;rounded=0;" parent="1" edge="1">
          <mxGeometry width="50" height="50" relative="1" as="geometry">
            <mxPoint x="170" y="155" as="sourcePoint" />
            <mxPoint x="170" y="135" as="targetPoint" />
          </mxGeometry>
        </mxCell>
        <mxCell id="shsJbg-5g0WoYL6_JStY-33" value="" style="endArrow=none;html=1;rounded=0;" parent="1" edge="1">
          <mxGeometry width="50" height="50" relative="1" as="geometry">
            <mxPoint x="170" y="135" as="sourcePoint" />
            <mxPoint x="210" y="135" as="targetPoint" />
          </mxGeometry>
        </mxCell>
        <mxCell id="shsJbg-5g0WoYL6_JStY-37" value="" style="endArrow=none;html=1;rounded=0;" parent="1" edge="1">
          <mxGeometry width="50" height="50" relative="1" as="geometry">
            <mxPoint x="210" y="155" as="sourcePoint" />
            <mxPoint x="210" y="135" as="targetPoint" />
          </mxGeometry>
        </mxCell>
        <mxCell id="shsJbg-5g0WoYL6_JStY-38" value="" style="endArrow=none;html=1;rounded=0;" parent="1" edge="1">
          <mxGeometry width="50" height="50" relative="1" as="geometry">
            <mxPoint x="210" y="155" as="sourcePoint" />
            <mxPoint x="330" y="155" as="targetPoint" />
          </mxGeometry>
        </mxCell>
        <mxCell id="shsJbg-5g0WoYL6_JStY-39" value="" style="endArrow=none;html=1;rounded=0;" parent="1" edge="1">
          <mxGeometry width="50" height="50" relative="1" as="geometry">
            <mxPoint x="50" y="210" as="sourcePoint" />
            <mxPoint x="50" y="170" as="targetPoint" />
          </mxGeometry>
        </mxCell>
        <mxCell id="shsJbg-5g0WoYL6_JStY-40" value="" style="endArrow=none;html=1;rounded=0;" parent="1" edge="1">
          <mxGeometry width="50" height="50" relative="1" as="geometry">
            <mxPoint x="50" y="210" as="sourcePoint" />
            <mxPoint x="470" y="210" as="targetPoint" />
          </mxGeometry>
        </mxCell>
        <mxCell id="shsJbg-5g0WoYL6_JStY-43" value="" style="endArrow=none;html=1;rounded=0;" parent="1" edge="1">
          <mxGeometry width="50" height="50" relative="1" as="geometry">
            <mxPoint x="49.99999999999997" y="185" as="sourcePoint" />
            <mxPoint x="90" y="185" as="targetPoint" />
          </mxGeometry>
        </mxCell>
        <mxCell id="shsJbg-5g0WoYL6_JStY-45" value="" style="endArrow=none;html=1;rounded=0;" parent="1" edge="1">
          <mxGeometry width="50" height="50" relative="1" as="geometry">
            <mxPoint x="90" y="205" as="sourcePoint" />
            <mxPoint x="90" y="185" as="targetPoint" />
          </mxGeometry>
        </mxCell>
        <mxCell id="shsJbg-5g0WoYL6_JStY-46" value="" style="endArrow=none;html=1;rounded=0;" parent="1" edge="1">
          <mxGeometry width="50" height="50" relative="1" as="geometry">
            <mxPoint x="90" y="205" as="sourcePoint" />
            <mxPoint x="130" y="205" as="targetPoint" />
          </mxGeometry>
        </mxCell>
        <mxCell id="shsJbg-5g0WoYL6_JStY-47" value="" style="endArrow=none;html=1;rounded=0;" parent="1" edge="1">
          <mxGeometry width="50" height="50" relative="1" as="geometry">
            <mxPoint x="130" y="205" as="sourcePoint" />
            <mxPoint x="130" y="185" as="targetPoint" />
          </mxGeometry>
        </mxCell>
        <mxCell id="shsJbg-5g0WoYL6_JStY-48" value="" style="endArrow=none;html=1;rounded=0;" parent="1" edge="1">
          <mxGeometry width="50" height="50" relative="1" as="geometry">
            <mxPoint x="130" y="185" as="sourcePoint" />
            <mxPoint x="170" y="185" as="targetPoint" />
          </mxGeometry>
        </mxCell>
        <mxCell id="shsJbg-5g0WoYL6_JStY-51" value="Q" style="edgeLabel;html=1;align=center;verticalAlign=middle;resizable=0;points=[];spacingBottom=20;spacingLeft=28;" parent="1" vertex="1" connectable="0">
          <mxGeometry x="25" y="190" as="geometry" />
        </mxCell>
        <mxCell id="shsJbg-5g0WoYL6_JStY-52" value="" style="endArrow=none;html=1;rounded=0;" parent="1" edge="1">
          <mxGeometry width="50" height="50" relative="1" as="geometry">
            <mxPoint x="35" y="174" as="sourcePoint" />
            <mxPoint x="45" y="174" as="targetPoint" />
          </mxGeometry>
        </mxCell>
        <mxCell id="shsJbg-5g0WoYL6_JStY-101" value="T-триггер" style="edgeLabel;html=1;align=center;verticalAlign=middle;resizable=0;points=[];spacingBottom=20;spacingLeft=28;" parent="1" vertex="1" connectable="0">
          <mxGeometry x="385" y="35" as="geometry">
            <mxPoint x="-6" y="7" as="offset" />
          </mxGeometry>
        </mxCell>
        <mxCell id="g9L_jU2QSdB-Epxfe-pE-1" value="" style="shape=image;verticalLabelPosition=bottom;labelBackgroundColor=default;verticalAlign=top;aspect=fixed;imageAspect=0;image=data:image/png,iVBORw0KGgoAAAANSUhEUgAAA9wAAAI8CAYAAAADY6MrAAAAAXNSR0IArs4c6QAAAARnQU1BAACxjwv8YQUAAAAJcEhZcwAAFxEAABcRAcom8z8AALsJSURBVHhe7b0F2FdV1r/vjI6tSDcCSgsS0qDSSCslKB0ipdLSKtIoonQqrbR0CVIS0khIS0gNIcIPBNZ/Puu7H/4478GRGR9gn/W5r2tf33n3OcM759nn7HPuHWvdI4QQQgghhBBCCPnLoXATQgghhBBCCCHRAIWbEEIIIYQQQgiJBijchBBCCCGEEEJINEDhJoQQQgghhBBCogEKNyGEEEIIIYQQEg1QuAkhhBBCCCGEkGiAwk0IIYQQQgghhEQDFG5CCCGEEEIIISQaoHATQgghhBBCCCHRAIWbEEIIIYQQQgiJBijchBBCCCGEEEJINEDhJoQQQgghhBBCogEKNyGEEEIIIYQQEg1QuAkhhBBCCCGEkGiAwk0IIYQQQgghhEQDFG5CCCGEEEIIISQaoHATQgghhBBCCCHRAIWbEEIIIYQQQgiJBijchBBCCCGEEEJINEDhJoQQQgghhBBCogEKNyGEEEIIIYQQEg1QuAkhhBBCCCGEkGiAwk0IIYQQQgghhEQDFG5CCCGEEEIIISQaoHATQgghhBBCCCHRAIWbEEIIIYQQQgiJBijchBBCCCGEEEJINEDhJoQQQgghhBBCogEKNyGEEEIIIYQQEg1QuAkhhBBCCCGEkGiAwk0IIYQQQgghhEQDFG5CCCGEEEIIISQaoHATQgghhBBCCCHRAIWbEEIIIYQQQgiJBijchBBCCCGEEEJINEDhJoQQQgghhBBCogEKt0ds27ZNPv30U1mwYIGrscXu3bulf//+8vXXX8vVq1ddrR0OHTokgwcPlkmTJsmlS5dcrR1OnDghw4cPl7Fjx8r58+ddrR3Onj0ro0ePlpEjR8qpU6dcrR0uXrwoEydOlCFDhsiRI0dcrR2uXLki06ZNk4EDB8r+/ftdrS3mzp0rn332mezYscPV2GLJkiXSr18/2bhxo6uxxapVq/T68WsRtDuuH/eBRfDc4/lHP2AR9Pvo//EewPuA+AWF2yO+/PJLSZUqlbRo0cLV2AKdbLp06aRu3bry22+/uVo7fPfdd5I5c2apXLmy/PLLL67WDj/88IPkzp1bXnrpJfn5559drR1++uknKVKkiOTPn19+/PFHV2uHf/7zn1KuXDnJli2bfP/9967WDv/v//0/qVGjhjzzzDNmP7ibNm0qqVOn1g9Oi3Tq1EmeeuopHXSzyEcffSQpU6bUX4ug3dH+uA8sgucezz/6AYug30f/j/cA3gfELyjcHoGZvYQJE0qTJk1cjS1mzpwpyZIlk9dff92kcK9YsUIHXMqUKSPnzp1ztXbYunWrPPvss/Liiy/K0aNHXa0dDhw4IHnz5lXh3Llzp6u1A2b1ixUrJmnTppU1a9a4WjvgAwuDbSlSpJCFCxe6Wlu88cYbkjhxYvnqq69cjS3effddiR8/vgwdOtTV2KJHjx4SL148/bUI2h3tj/vAInju8fyjH7AI+n30/3gPULj9w4xwYwny8uXLdTkKSs+ePaVz587Xy/vvv6+jplHHu3fv/rvjH3zwgfTt21ePff7553dkSR9muDG617JlS1djC8xwp0+fXurVq2d2hjtLlizy6quvmp3hzpMnj5QoUcLsDHfRokXl+eefNzvD/fLLL8tzzz1ndoa7Zs2akjFjRrMz3G+99ZakSZPG7Aw3vkWefvppGTVqlKuxxccff6wzvPi1CNod7Y/7wCJ47vH8ox+wCPp99P94D1C4/cOMcF++fFlat24tDz74oNx7770SK1Ys7bijCkaNUPfwww9rwUzyjceTJk0qDz30kNx///0qvXdiDwmFm8JN4aZwU7gp3BRuCrdFKNwUbgo3hdtXTAl3gwYN5J577tGCpZkjRoy4XjC7jQc56jiWbNx4vH379irrOAYhnz59uvuXbx8Ubgo3hZvCTeGmcFO4KdwWoXBTuCncFG5fMSPcuDmrV6+uwoygQ1OnTnVHIiACLkQGxzED/sUXX7gjEU6fPi0dOnSQ5MmTy6OPPqrRcm83FG4KN4Wbwk3hpnBTuCncFqFwU7gp3BRuXwmFcCM8PtIEQZqvXbvman/PhQsXpH79+pIjRw6ZPXu2nnsjEOqKFSteF+5hw4a5I/8/Z86ckTZt2kimTJlUfm83FG4KN4Wbwk3hpnBTuCncFqFwU7gp3BRuXwmFcO/atUs7IERwvFl+Ygja4sWLZcaMGf9HtgE+4MuXL39duAcNGuSO/B589CNSIv5/3m4o3BRuCjeFm8JN4aZwU7gtQuGmcFO4Kdy+Egrh/uabbzRdUoUKFeTXX391tbfGnxXuOwmFm8JN4aZwU7gp3BRuCrdFKNwUbgo3hdtXQiHcuAnxEGJJOIU7vFC4KdwUbgo3hZvCTeGmcFuEwk3hpnD7SyiE+9tvv5Vnn31WXn/9dQp3iKFwU7gp3BRuCjeFm8JN4bYIhZvCTeH2Fwq3wwfhHjdunCROnFiaNm3qamwxc+ZMefLJJ6VatWomhXvFihX6silXrpycO3fO1dph69atkjlzZilQoIAcPXrU1drh4MGDmmEBwrlz505Xa4dTp05J8eLFddBtzZo1rtYO+MDCYFvKlCll0aJFrtYWSO2ZJEkSmTRpkquxRdu2bSVhwoQar8YiPXr0kAQJEuivRdDuaH/cBxbBc4/nH/2ARdDvo//He4DC7R+hEO7ly5ercEPEggKi/Rl8EO4JEyZIihQppFmzZq7GFoguj736tWrVMincq1atkmeeeUZjFVic4d62bZtkz55dihQpYla4MdiQO3fuOxK08U6DGe7SpUtrX79u3TpXawd8YGFQOW3atBoA1CKNGjXSD84pU6a4GlsgNWmyZMlkxIgRrsYWvXv3lqRJk+qvRdDuaH/cBxbBc4/nH/2ARdDvo//He4DC7R+hEO7NmzdLtmzZpG7duq7m1vFBuDdu3Cjdu3eXr7/+2tXYYseOHdKzZ09dWn/16lVXa4cDBw7IRx99JKNHjzbZ2eIZ/fTTT3WU3+IMP9ISDh48WPr37y8nTpxwtXZAaseRI0fqclIsr7cGBhnHjx8vvXr1kt27d7taW2BJKd6BW7ZscTW2mDdvnnTt2lXWrl3ramyxdOlSvX78WgTtjuvHfWARPPd4/q1uKUG/j/4f7wGLk06+471wY9Zj4sSJki5dOl1qi6WW+DC7VXwQbkIIIYQQQggh/uC1cF+7dk2X2OTIkUMee+wx3dtStWrV/2r0l8JNCCGEEEIIIeSvxHvhRrRCSHJUiREjhsyYMcOd8efxQbj37dune1gs7l8Ehw8f1qVEK1eu1La3BpYR497GcjqLy4mwpBr7+BcuXPhfrWLxHQSEnD9/vsyZM8fkkvpLly7pHjYETzx58qSrtcOVK1c0Xsn06dP1fWWR1atXy9SpUzWegUWwrQzfAFa3FCCOx+TJk/XXImh3tD/uA4vgucfzj37AIuj30f/jPYD3AfEL74W7VatWvxPuRIkSyaxZs9wZfx4sTUce7yjhHjZsmDty94COBnvVrQbMgGjlzJlTo7RbFE6s3ECU6tq1a8v58+ddrR2whx9psfCcHjt2zNXaAQNOSIuFtGh79uxxtXY4ffq0Bot58cUXTX5wIm5Dw4YNNTUePrgs0qZNG43S/9+848MA9q8iNSQyllhkwIABmqkCvxZBu6P9cR9YBM89nn/0AxZBv4/+H+8BBk3zD++F+9133/2dcCNtFGaAbhXcvFWqVLku3F988YU7cvcwZswYiRcvntkIjQgWhwEVbBuwKNzobBGhs1SpUiZnOBEwJUOGDDrocOTIEVdrBwTNy5Url35wYvDBGkgLVrhwYc1UYHGGAxk4kKEAUZoXLFjgam2BwKjx48fXwJkWad26tcSJE0eDJ1qkW7duEjt2bP21CNod7Y/7wCJ47vH8ox+wCPp99P94D/y3GZnIncO0cJ89e1ajPUKu+/Xrp4HXov4dyDfqURAF/W4AnQ0+Nlu2bOlqbDF37lxto3r16pkU7u+++05lCzkYLaYF++GHH3R0FzO8FpfUIjI3Zviff/55+fHHH12tHbAKCTP8WOXz/fffu1o7YFC4Zs2amhpwyZIlrtYW2EKWOnVqs1GKO3fuLE899ZSMGjXK1dgCGQow6Ixfi6Dd0f64DyyC5x7PP/oBi6DfR/+P9wBnuP3DtHBjWeZrr70mTz/9tOa3jhkzpjzwwAPy4IMPSoIECbQeBWl47gYg3OhsLAt3+vTpTQs3lpNRuCncloUbSwotC3fGjBlNC3eaNGlMCze+SSwLN4TTsnCj/S0LN55/y8KN/p/C7SemhRtBqBDlvGPHjtqB9e7dW2e6UZDrEPUod0vORwo3hZvCTeGmcFO4KdwUbotQuCncFG4Kt694LdwAHc+Nwo2Z6rtFkP9qKNwUbgo3hZvCTeGmcFO4LULhpnBTuCncvuK9cLdr1+53wo0ZbuzLDiMUbgo3hZvCTeGmcFO4KdwWoXBTuCncFG5f8Va4kZP6s88+04/PG4X7iSeekOrVq+uDGbYofhRuCjeFm8JN4aZwU7gp3BahcFO4KdwUbl/xVri/+eYb7XhulO0bS7Vq1fQDLUxQuCncFG4KN4Wbwk3hpnBbhMJN4aZwU7h9xVvhnj9/vubjC5JtlPLly2ve1jBB4aZwU7gp3BRuCjeFm8JtEQo3hZvCTeH2FW+Fe/r06RIvXjy9+fARljhxYs1RjP+MZeXFihWT48ePu7PDAYWbwk3hpnBTuCncFG4Kt0Uo3BRuCjeF21e8FW6k/nrhhRekT58+smjRIsmbN680atRIVq9eLVWrVtV93Ej7FSbGjx+vQeHefvttV2OL2bNn68sWnY1F4V65cqUOOGD1hkXh3rZtm8pW4cKF5ejRo67WDgcPHpQXX3xRcuXKJbt27XK1dsCKpZIlS+oHx9q1a12tHfCB9dprr+mg6+LFi12tLRo2bCjJkyeXyZMnuxpbtG/fXpImTSrDhw93Nbbo1auXJEmSRH8tgnZH++M+sAieezz/6Acsgn4f/T/eAxRu//BWuA8fPqyijY/QTZs26UcoHkIESlu3bp2sWLEidEHTxo4dKwkSJJDGjRu7GlvMnDlTXzbobCwKN+5pjG6XLl1azp0752rtsGXLFsmUKZMOtFkU7gMHDugMf9asWWXnzp2u1g4QbszwY4ZjzZo1rtYO+MCqVKmSfnAuXLjQ1dqifv36kjBhQvnqq69cjS3atGmjK/uGDBniamzRvXt3iRs3rv5aBO2O9sd9YBE893j+0Q9YBP0++n+8Byjc/uGtcN/It99+qx/iYR/1wQwnltKMHj3a1dhi48aN8s4778jgwYPlypUrrtYOmNVs1aqV9O3bN3SDSX+GQ4cO6ch+t27d5MyZM67WDidPnpQuXbpIp06dTA44nD9/Xme28LG5d+9eV2uHy5cvS//+/aV58+a62sMiI0eO1HegxQEXAOFo0qSJ2S0Fs2bN0uvHr0XQ7rh+qwNOeO7x/KMfsAj6ffT/eA/gfUD8IjTC/eyzz6pwX7hwwdWGDzxgZ8+eDfU1/hGY1cbM7q+//upqbIFBhqjrv3btmqu1A64fS+khXhav/+rVq3r9KPjP1kCbo+3xDFgccAN49nH9Flf4ALz78A60+rGJgVZc/6VLl1yNLTChguu3OruHdsf1WxxwB/wGtv0N7DuhEu7XX3+dNyIhhBBCCCGEkLsCCrdHYHYHQeEQrdgiGNXGkqI9e/a4GltgVhPRmS3u340C2wqsLqcF2MeOmBVW2b59u6xfv979X/bYvXu3BoyzOsONOAarVq0KXQaSPwu2UmBr2ZEjR1yNLRCzB9ePX4ug3XH9FrfUAARCxvNvMWgoOH36tDoAMrZYXOXmO2aFG8sTfSuI0o2gQT169Ag8HvaydOlSeemll6Rdu3a6tCjonDCXDRs2SNmyZTVKfdSyaksFqbAqV64sdevW1Q/uoHPCXPCxVatWLc3CsG/fvsBzwlzwsYHAmEgNhoGHoHPCXDDg2Lp1a43UjhSBQeeEvXzwwQea8tNq0LhPP/1UszRMmTLF1dgCe3cLFSpkdg8v2h3tj/vAInju8fwjlolFINulSpXS94DVbSU+Y1a4EV7/3Xff9apANu+55x555plnAo+HveBD++9//7umBkPwsKBzwlwgWvfff7+mRWnWrFngOWEutWvXlkceeUTixImjkfqDzglzefPNNyVWrFjy2GOPaS76oHPCXBAsB1kaHnzwQalWrVrgOWEuLVu21Ai19913n0apDTon7CVdunQapXr69OnuTW4L3APoAwYNGuRqbNG1a1eJGTOm/loE7Y72x31gkYkTJ+rzX6dOHVdjiwULFuj3H1LDWt3H7zNmhRvRjiGvLCwsLCwsLH6UVKlSyTfffOPe5LZAhoKUKVOaneH96KOPJEWKFPprEbQ72h/3gUWmTp2qz3/Tpk1djS3Q72XIkEFq1KhhNnCgz5gV7rZt2wa+zFlYWFhYWFjuzoI87FbTYnXu3FmefvppGTVqlKuxxccff6wr3PBrEbQ72h/3gUWmTZumzz9WO1kE/V7GjBmlZs2aFG4PMSvcWJqBfHY+FezdwHKq7NmzBx4Pe8EymtixY2uHg3zcQeeEuWBJebx48SRt2rSaizPonDAXvGQSJUqkMxwNGjQIPCfMpX79+vLkk0/qkjIsrw86J8ylUaNG+rEZP3587euDzglzwUcmZjewpQJLyoPOCWtB34frhnCnTp3a7Aw3hZvCTeGmcFO4/cSscCPCHyK9+lTGjx+vy2nwARJ0POxl1qxZuocP+3ewfyXonDCXFStWSObMmTVwGAJIBZ0T5rJ582bJnTu3xjI4dOhQ4DlhLgiUVqRIEcmfP79G6w46J8wFgfLKlSsn2bJl02wFQeeEuSBQYvXq1TWGx6JFiwLPCWtB34fBBgg3hIPCTeG2CIWbwk3h9hezwu0jEE7Mbnbo0MHV2GL58uXa2WCmyyJIh/Xcc8/pR7dFINnPP/+8Rmq3GDDk3LlzUqJECSlYsKAcO3bM1doBg6SY2c2ZM6fZtDBY5YBBt3Xr1rkaG6Dvwzuewk3hpnBTuCncFG4foXB7xJdffqnL6axGqJw7d66kT59eIzRj1sMaSAWUJUsWefXVV+WXX35xtXZA7sk8efKodP7888+u1g7Iv4+0gBh0QIo0a/zzn//UTAUYdEI+emvgAwsfWvjgsraHGX0fZvYp3BRuCjeFm8JN4fYRCrdHULgp3BRuCjeFm8JN4aZwW4TCTeGmcFO4fYXC7REUbgo3hZvCTeGmcFO4KdwWoXBTuCncFG5foXB7BIWbwk3hpnBTuCncFG4Kt0Uo3BRuCjeF21co3B5B4aZwU7gp3BRuCjeFm8JtEQo3hZvCTeH2FQq3R1C4KdwUbgo3hZvCTeGmcFuEwk3hpnBTuH2Fwu0RFG4KN4Wbwk3hpnBTuCncFqFwU7gp3BRuX6FwewSFm8JN4aZwU7gp3BRuCrdFKNwUbgo3hdtXKNweQeGmcFO4KdwUbgo3hZvCbREKN4Wbwk3h9hUKt0eMGzdOkiRJYrazmTVrlqRIkUKqV69uUrhXrlwpadOmVek4d+6cq7XD1q1bdcChYMGCcvToUVdrh4MHD6ps58iRQ3bu3Olq7XDq1Cl56aWXJEOGDLJ27VpXawd8YFWpUkU/uBctWuRqbUDhjtC2bVtJlCiRDBs2zNXYomfPnpIwYUL9tQjaHe2P+8AikydPlmTJksmbb77pamyBfh/9H94DFG7/oHB7BIQ7adKk5oW7Ro0aFG6jwp01a1YKt2HhxuoGiBeFm8JtkXbt2knixIlNCzeE07Jwo/1xH1iEwk3h9hkKt0dgGWWnTp1kypQprsYW27Ztk/fee0/GjBkjV69edbV22Ldvn3Tt2lWGDx9usrOFZPfq1Us+++wzOXv2rKu1A5ZU9+vXT/r06SPHjx93tXZA3z5o0CDp1q2bDj5YA4OMn3/+uXzwwQeya9cuV2sDCneEmTNnSseOHWXVqlWuxhYQjg4dOpgbcIoC7Y72x31gkY0bN+pyemyvtAj6ffT/eA9YnHTyHQq3Z1y7dk2LVXj9vH5eP6/fKlavn8Idgfd/5Pr5N+D1W8X69fsMhZsQQgghdy0UbkIIIT5D4fYIRClGpO7Nmze7GlsgMvX8+fN1ab3FET7sYV24cKGsXr3a5HIi7FvHh/by5ctNLqm/cOGCLFu2TCOVWoxSf+nSJY1jgOWkp0+fdrV2wDYa7F1fsGCBuS0FFO4IyNSAb4D9+/e7GltgSe2cOXPMbamIAu2O9sd9YJHDhw/LvHnzdGm5RdDvo//He8DitkrfoXB7xIwZMzQtEvYxW2Tx4sWSP39+ad68uUnhxEBD4cKF5Y033pDz58+7WjvgI6tUqVJStWpVk3uYjxw5IpUrV5ayZcvK3r17Xa0dzpw5I7Vq1dLUaBYHHTHg0LRpU3nxxRd14MESFO4IiGGRK1cumThxoquxxeDBgyVnzpz6axG0O9of94FFMNiSN29ead++vauxBfp99P94D+B9QPyCwu0Ro0ePlrhx40rDhg1djS0w4ICUIIjQaFG4MbOLKO0lS5Y0GaV8y5YtmhIqX758Kp/WOHDggH5soq/bsWOHq7UDVngUKlRIhQurPKxx8eJFqVChgmaqwCyHJSjcEVq1aiWxY8c2K5wIGhorViz9tQjaHe2P+8AiCJYWL148qVu3rquxBfp99P94D+B9QPyCwu0R6GxSpUolLVq0cDW2wFKqdOnSaWdrUbjx0Zk5c2ad5bS4pBjL6HLnzq25mLG9wBrYUlKkSBFd5fHjjz+6WjsgSnu5cuUkW7ZsutrDGthGgZSIEE9sK7AEhTsCspQ89dRTMmrUKFdji48//lhSpkypvxZBu6P9cR9YZNq0aZI6dWqd4bUI+n30g3gPMC2Yf1C4PQLCjc6mZcuWrsYWEO706dNLvXr1zAp3lixZ5NVXXzUr3NhSgVzMVoUby6mRi9uqcCMH/XPPPWdWuGvWrCkZM2akcBsVbqREwvVbFm4Ip2XhRvvjPrAIhDtNmjTy1ltvuRpboN9H/4/3AIXbPyjcHkHhpnBTuCncFG4KN4Wbwm0RCjeFm8JN4fYVCrdHULgp3BRuCjeFm8JN4aZwW4TCTeGmcFO4fYXC7REUbgo3hZvCTeGmcFO4KdwWoXBTuCncFG5foXB7BIWbwk3hpnBTuCncFG4Kt0Uo3BRuCjeF21co3B5B4aZwU7gp3BRuCjeFm8JtEQo3hZvCTeH2FQq3R1C4KdwUbgo3hZvCTeGmcFuEwk3hpnBTuH2Fwu0RFG4KN4Wbwk3hpnBTuCncFqFwU7gp3BRuX6Fwe8SECRMkefLk8s4777gaW8yePVtfNrVq1TIp3KtWrdKPzgoVKpgU7m3btkn27NmlSJEicvToUVdrh4MHD0qBAgUkd+7csmvXLldrBwh3qVKltK9ft26dq7UDPrDwjsMH5+LFi12tDSjcETp06CDJkiWT4cOHuxpb9O7dW5ImTaq/FkG7o/1xH1hkypQpkiJFCmnUqJGrsQX6ffT/eA9QuP2Dwu0RY8aMkXjx4pntbL7++mtJnDixVK1a1aRwL1++XFKmTKnSce7cOVdrhy1btuhHd/78+eXIkSOu1g4HDhxQ2c6cObPs2LHD1drh1KlTUrhwYUmVKpWsXr3a1drh4sWLUrFiRf3gXrBggau1AYU7QuvWrSVOnDgyePBgV2OLbt26SezYsfXXImh3tD/uA4tglWf8+PF1laNF0O+j/8d7AO8D4hcUbo9YtmyZdjRWR7exjLRBgwbSr18/uXLliqu1AySrSZMm0qNHD7lw4YKrtQNmeJs3by6dOnWS06dPu1o7nDhxQtq3by+tWrWSw4cPu1o7YFVHly5ddDnh7t27Xa0dLl++LB999JE0bNhQNm/e7GptQOGOMHbsWKlbt64sXLjQ1dgCS4rr1KmjvxZBu6P9cR9YBKv86tevb3bACf0++n+8B/A+IH5B4fYIjGgdO3ZMzp4962psgSU0x48flzNnzrgaW6CDxfVjae21a9dcrR2wqgHSiZnOq1evulo7YJAJ137y5EmTKzzQ5rj3cQ9Y/NjAM4+BJvQBly5dcrU2oHBHwMomfANYHHAF58+f1+vHr0XQ7rh+iyvcgPVvYPT76P/xHrD4Deg7FG5CCCGE3LVQuAkhhPgMhdsjMLu1ceNG3ctpEcxsb9q0Sfbu3WtydA9LarGPGRGqLS6px+g+Aqdhab3FGU6Mbm/fvl3/Bhb3b2FWH8Hi8AxYnOHCDP+ePXt0WaG1GR4Kd4RDhw7pNwBWeVgEwTJx/RaDZgK0O64f94FFsMIJ179//35XYwv0++j/8R6wuMrPdyjcHjFv3jwNmNWnTx9XY4sVK1ZIuXLlNCWGReFER4tgGdjDa3ElB14y1apV0z1MWFZtDaRCe+ONNzQliMVBN3xsvP3225oWDynirIEBF+zhf+WVV2Tt2rWu1gYU7ggDBgyQkiVLyvTp012NLUaPHq1pIfFrEbQ72h/3gUUQpbt06dLSvXt3V2ML9Pvo//EesLatKAxQuD0CLxlEqIRwWGTGjBmSIEEC/eC2uIcVQfOQFg4fHFajlCMPe968ec1GKc+ZM6dkypTJbJTyQoUKaR5eq1HKy5cvL0mSJGGUcqPC3bJlS4kVK5YMGjTI1diia9euEjNmTP21CNod7Y/7wCITJ06UuHHjauA8i6DfR/+P9wCjlPsHhdsj0NngYxORmi0yZ84czUGIztaicCNCJ2SrUqVKZvNwQziLFy+us73W+OmnnzQtFgYcsK3AGlhOWLZsWcmSJYvZPNzVq1fXQSdrwknhjtCxY0fNQzxy5EhXYwtEZ8agM34tgnZH++M+sMjUqVP1+Ue2Foug30P/j/cA83D7B4XbI5CDMHXq1GZHN+fOnaudDVKjWRRufHRCNjDDb1G4sYw4T548OsNvVbiLFi0qzz//vFnhfvnll+W5557TFIHWwAcWthNkzJhRlixZ4mptQOGOgO1UuP5Ro0a5Glt8/PHHOumAX4ug3dH+uA8sgnRwmHRBakiLoN9H/4/3AIXbPyjcHkHhpnBTuCncFG4KN4Wbwm0RCjeFm8JN4fYVCrdHULgp3BRuCjeFm8JN4aZwW4TCTeGmcFO4fYXC7REUbgo3hZvCTeGmcFO4KdwWoXBTuCncFG5foXB7BIWbwk3hpnBTuCncFG4Kt0Uo3BRuCjeF21co3B5B4aZwU7gp3BRuCjeFm8JtEQo3hZvCTeH2FQq3R1C4KdwUbgo3hZvCTeGmcFuEwk3hpnBTuH2Fwu0RFG4KN4Wbwk3hpnBTuCncFqFwU7gp3BRuX6Fwe8TEiRP1ZdO8eXNXY4s5c+ZoZ1unTh2Twr1q1SrJlCmTVKpUyaRwb9u2TXLmzCnFixc3K9yFChWSvHnzmhXusmXL6qDTunXrXK0d8IFVvXp1HXS0JpwU7ggdO3aUFClSyMiRI12NLfr06SPJkyfXX4ug3dH+uA8sMnXqVH3+mzRp4mpsgX4P/T/eAxRu/6Bwe8To0aMlTpw40rBhQ1djixkzZkiCBAl0hteicC9btkw/NjDDe+7cOVdrhy1btujLBsJ55MgRV2uHAwcO6IADBl127Njhau1w6tQpHXDAoOPq1atdrR0uXrwo5cuXlyRJksiCBQtcrQ0o3BGwui1WrFgyaNAgV2OLrl27SsyYMfXXImh3tL/VVY6YdIobN65OulgE/T76f7wH8D4gfkHh9oj58+dLmTJl5KOPPnI1tlixYoUuKX3vvffkypUrrtYOmzdvlsqVK0vr1q1DfZ/fjL179+rIbqNGjeTkyZOu1g6Y1W/QoIHUqlVLDh486GrtcPbsWXnnnXekSpUqur3AGpcuXZIOHTrox5a1GX4Kd4SBAwdKqVKlZPr06a7GFph0KFmypP5aBO2O9sd9YJHFixfrKqcePXq4Glug30f/j/cA3gfELyjcHoEZHkiXxY9tcObMGZ3l3Ldvn1y7ds3V2uH8+fOydetW2b17t1y9etXV2uHChQsqWjt37pTLly+7WjvgBYuZ7e3bt5tcToZVLVhKj60FFgec0Odh0Al9oLUVLhTuCIcPH5ZNmzbJiRMnXI0tMOiI67e4pQig3XH9uA8scvr0af0Gxmovi6DfR/+P94DFb2DfoXATQggh5K6Fwk0IIcRnKNwegRk+jOxiptci2LOC68cop0Uww3ns2DFd6WBxdBMznMePH9fl5BZn+LGNAjMc+BtYjGGANkfb4xmwuMIBzzwCx+H6ra1woHBHwLYKvAOtTiwgWCiu32LQUIB2x/XjPrBI1Deg1W9g9Pvo//Ee4Ay3f1C4PQLXWbduXRk2bJirsQX2r7zxxhvyySefmNzDjeXEjRs3lm7duungizWwlaJZs2a6f8nioAtku127dhowx+KSQnxkv//++9K0aVOTUdoxyIDozG+++aYuq7QEhTvCmDFjpHbt2uaC5kWBKNWIYYFfi6Dd0f64DyyycuVK/Qa2GjQQ/T76f7wHLA46+w6F2yPQycaLF0+DRlnk66+/lkSJEknVqlVNzvAtX75cUqZMqUFTrEYpx0d3/vz5zUYpz5Url2TOnNlslPLChQtLqlSpzEYpr1ChgiRLloxRyo0KNwJmIlPJ4MGDXY0tMNgcO3Zs/bUI2h3tj/vAIl9++aXEjx9fpdsi6PfR/+M9wCjl/kHh9ogJEyZoWihE6rXI7Nmz9WMbI9wWhRt5uPHRic7Wah7u7NmzS5EiReTo0aOu1g6Y4S9QoIDkzp1bdu3a5WrtgGV0pUuX1r7eah5uvOPSpk2r0XotQeGOgNU9+OAeMWKEq7FF7969JWnSpPprEbQ72h/3gUWmTJmiecitTjqh30f/j/cA83D7B4XbIzC6lzp1arM5GOfOnat5mOvVq2dSuPHRmSVLFs1DblG4EaE8T548mocc+7is8dNPP0nRokXl+eefN7mkGsKNtIDPPfecfP/9967WDvjAqlmzpmTMmFGWLFniam1A4Y7QuXNnvf5Ro0a5Glt8/PHHmocfvxZBu6P9cR9YZNq0aZImTRp56623XI0t0O+j/8d7gMLtHxRuj6BwU7gp3BRuCjeFm8JN4bYIhZvCTeGmcPsKhdsjKNwUbgo3hZvCTeGmcFO4LULhpnBTuCncvkLh9ggKN4Wbwk3hpnBTuCncFG6LULgp3BRuCrevULg9gsJN4aZwU7gp3BRuCjeF2yIUbgo3hZvC7SsUbo+YOHGidrYtWrRwNbaYM2eORmisU6cOhduocCMtVvHixc0KN9Ji5cuXz6xwly1bVrJmzUrhNi7cS5cudUds8d577+n1f/HFF67GFn379lXhxq9F0O5of9wHFpkxY4YK99tvv+1qbAHXQf+PTD3Mw+0fFG6PGD16tOZgbNiwoauxBTrbBAkSqHBSuO0JN/JwY4VD3rx5zebhzpkzp2TKlMlsHu5ChQrpB7fFPNwU7ohw44N7w4YN7ogtevXqpdc/efJkV2OLoUOH6io//FoE7Y72x31gEaxswTdAmzZtXI0tNm7cqN+ADRo0cDXEJyjcHoEZ3mLFiknPnj1djS2WLVumy4nbt28vV65ccbV2sC7cu3fv1muvX7++nDx50tXaAbnHa9euLa+99prs37/f1drh7Nmzmn+1fPnympPdGhTuiHA/+eSTOtOHQSdrpUmTJnr93bt3Dzwe9vLuu+9qHmr8Bh0Pe0G7o/1xHwQdD3vp37+/5uGuXr164PGwF0y6YcAJW6s2b94ceM6fLYcPHzb5HX0noXB7xPHjx3VmZ8+ePa7GFpjhWrNmjezcuVOuXbvmau2Aj87MmTNL5cqVTQo3nu3169fri+bSpUuu1g4Qrk2bNuns3oULF1ytHbCqZevWrbJu3TqT9z/av0aNGiqeFoUbAw0Q7gcffFBXeSCWgbUC2cL1Y5Yz6HjYS8qUKeWBBx7Q36DjYS9od7Q/7oOg42EvGTJk0OtPlChR4PGwF3jOww8/LPHjx5f8+fMHnvNnS6dOnXSbFrl9ULgJ8YTly5fr6G7JkiXl3LlzrpYQYoGLFy/q7H6SJElkwYIFrtYG6PsgGRBuFhYWFpb/rSAArcWteXcSCjchnoBAUUWKFNH9O+fPn3e1hBALYFUHovMWKFBAVq5c6WptgL4P+/cRwwMFsUxix45trsSLF0+vP27cuIHHw15w3bz+BHofBB0Pe7F+/ej3MLv9V1w/tqedOHHC9bDkdkDhJsQTsKR+0aJFuqzeYtA4Qixz9epVXU6/cOFCcx9K6Ptw3VOmTNGC4FEWS9T1W/0b8PptXz8Kr/+vuX5sT8U2JXL7oHATQgghhBBCCCHRAIXbIzCriWBJFgNGAURUtHz9CBSHWS4Ui+C6sY8VxWLQPFxz1PVbvAdw/RiRRx9g+RlAsXj/R2H52gGvn9dvGV7/3Xf9+CY5c+aMBjPFdkeLQV3/DBRuj8Bywg4dOuhyEIsgFVDnzp01NYLFD+69e/dKly5dNAepxaVASIvVo0cP+fTTTzVFlDUQUfSTTz6R3r17a8YCa6BvHzhwoHTt2lVzklsDA66jRo2S999/XzM1WGTixInSsWNHzUdrka+//lrTYlrbwx8FthXg+vFrEbQ7rh/3gUXw3OP5Rz9gEfT76P/xHribthV+9dVXUqlSJd0X/sYbb0jr1q01jSv5PaEQ7qVLl6pwo7HDzLRp0zRSa6tWrVyNLZAK56mnnpK6deu6GlsgHRbSYqBjswgkK3v27FK0aFGTW0dOnz4tBQsWlNy5c+vggzXwgVGmTBlNCbV9+3ZXawukBUMeVuy/swiCxiVPnlzmzJnjamyBj21EqR87dqyrsQUGWxMnTqy/FkG7o/1xH1gEzz2ef/QDFkG/j/4f74G7CQh3zpw5NWUbIqDjFwMj33zzzR+WgwcPun/BBqERbuQmrVKlis584cMsjGXMmDHa2TZp0iTweNjLjBkztLOtVq2aLmEJOifMZdmyZZI2bVopV66cylfQOWEuyEGdJUsWjdJ86NChwHPCXPbt26e5NzHo8MMPPwSeE+aCWf3ixYvroBPyMgedE+aCpXqvvvqqDjoiLVjQOWEvmD1JmjSpfPnll4HHw17effddzUE8ZMiQwONhL927d5eECRPqb9DxsBe0O9of90HQ8bAXPPd4/tEPBB0Pe0G/j/4f7wG8D4LOuRPlp59+kgkTJki6dOmupx1DNHXkjf+j8uGHH/7ht3zYVrKGQrhXrFihNyEauFatWlKvXr1QlsKFC0uMGDF0hifoeNjLSy+9JDFjxlTpxCx30DlhLmXLltV0DrjXw3yf36xUrFhRn3G8cLF9JOicMJeqVavqgBs+OCtXrhx4TpgLRvUx4IbUMC+//HLgOWEuderU0dmNWLFiSalSpQLPCXvBwDregVjlEnQ87CVbtmzy+OOPy4svvhh4POwFq3tw/fgNOh72gnbH9eM+CDoe9oLnHs8/+oGg42Ev6PfR/+M9gPdB0Dl3orz99ts6CJIsWbLrwv1nSooUKW56HUh/iwGGMBEK4d6xY4d+gGfMmFFnP8Ja8LF9//33ay6+oONhL1hO/8ADD6h0p0+fPvCcMBd0TliqgxcORhKDzglzefrpp+Xhhx+WRx99VEdHg84Jc8FLFteOv0GqVKkCzwlzwUAbPjYfeughSZkyZeA5YS545p944gntAzDwEHRO2AsGHPEOwKBb0PGwFww24RsAy6qDjoe9IAczrh+/QcfDXtDuuH7cB0HHw17w3OP5Rz8QdDzsBf0++n+8B+6mb8CsWbNK5syZ9f0cJNY3K4888shNrwPbhD///HNneeEgFMKN/Zxbt27VJbcYEZk/f34oC4JlQLox0xd0POwFwZIg3SVKlNC9PEHnhLn069dPpROj3FheH3ROmMuwYcN0oCVHjhwaNCXonDCXcePG6cwGBhYRNCXonDAX5B7NmzevDjwMGDAg8Jwwl1mzZukMDwbeEDgv6JywF6xswDvwvffeCzwe9lK9enVdUtyyZcvA42EvmPXC9eM36HjYC9od14/7IOh42Aueezz/6AeCjoe9oN9H/4/3AN4HQefcibJo0SL54osv9NskSKxvVhCTZfbs2YH/JgIjhi04aiiE2wpz587V0aBOnTq5GlusWrVKH2jsYbcIVnJg/+7dFjDjdoFAYS+88ILuYcf+HmtgYBFLygoVKiSnTp1ytbbA3rVcuXJpxH6LQDQQx8BqlO42bdrooNvixYtdjS169uypq3usZipBhg4MuOHXImh3tD/uA4vgucfzj37AIuj30f/jPXA3gYC+GAzCyoMomcagwDvvvPOHZd68ee5fsAGF2yOiOluE3LcIVi9gqQn2ilhk7dq1unQHwQERaMIau3bt0hnOkiVLysmTJ12tHTDgUKxYMR10QAA1a5w7d05eeeUVHXSyKJxXrlzRTByI4YHVXBbBRxq2FlhNi4To1NhOgtSYFkFaRKzywq9F0O5of6tRyvHc4/lHP2AR9Pvo//EewPvgbmHQoEHqJtjqhVWozz33nMycOVMuX778h8VaTnUKt0cgQiNGdzGSZBHM8GN0EwEVLM5wIjIzRjcxy/fLL7+4WjsgMneePHl0S8HPP//sau2ASKAYNX7++eflxx9/dLV2QB5yLCXEy/z77793tXZA7v2aNWvqKh+kSLQI0gHhww4pMi3SuXNnFU5sKbHIxx9/rEFD8WsRtDvaH/eBRfDc4/m3mhYM/T76f7wH8D64W9iyZYtu88OACLZ7IuWXxW/U/wSF2yMo3BRuCjeFm8JN4aZwU7gtQuGmcFO47z7hJn8OCrdHULgp3BRuCjeFm8JN4aZwW4TCTeGmcFO4fYXC7REUbgo3hZvCTeGmcFO4KdwWoXBTuCncFG5foXB7xJgxYzT/ZOPGjV2NLbA/BCkhXnvtNZPCvXz5cn3Zli5dWgNIWQP7hPCygXAeOXLE1doBKTIw4IBBl507d7paOyAyOwYc8MG1Zs0aV2sHfGBVqlRJg9IgZYpF6tevLwkTJpSvvvrK1dgC0ZnjxYsnQ4YMcTW26N69u+agxq9F0O5of6tRuvHc4/lHP2AR9Pvo//EeoHD7B4XbIyZNmmQ6JQJSCCBCI1IiWBTu1atXa4RmDDhYnOHevn27yjZyN1qc4T506JDO7hcsWFB2797tau2AGe6KFStqWrD169e7WjvgA6tOnTo64LJ06VJXa4tmzZpppooZM2a4Glt88MEHmhoUOW8tgujkiFJtNUo52h3tj/vAInju8fyjH7AI+n30/3gPULj9g8LtEZjVGjlypHz77beuxhb79++Xzz//XNODXb161dXaAWmhsMph1qxZmlLBGpjhnDBhgkydOlVzUlsDgyxIDYitJadPn3a1dkAqPHxwjR07Vo4dO+Zq7YA0MBh0xEc3thdYBNFvsazW4oATWLVqlYwYMUK2bdvmamyBgTZcv8UBN4B2x/XjPrAInns8/+gHLIJ+H/0/3gN3U1ow8uegcN8AOrP58+f/n3L48GF3hsjx48c1Byx+CSGEEEIIIYSQm0HhdmD2DMn0sVzl38vgwYPdWSL9+/eXUqVK6SwjIYQQQgghhBByM0wL97Vr12T8+PHSvn17adKkibz55psaAfvfS8OGDTUqIgoE/PHHH5dx48a5f+X2gSjNAwcOlEWLFrkaW+zZs0cHPzDYYXFJOVZaDBs2TJdUX7p0ydXa4cSJE7qcDMvKz58/72rtgEB56HewpAz7ma2BJeUImjN8+HDdXmENLCFE4EgETkIAPYtgxRnegRaDBgJsJxswYIBs2rTJ1dgCcUww6YFfi6Dd0f5WtxXiucfzj37AIuj30f/jPcAl5f5hVrgxoz179myNevzwww9rqhmIHIJx/Xv56KOPNDIuSsyYMTVS9vTp092/dPtgWjCmBWNaMKYFY1owpgVjWjCmBbMI04IxLRjTgvmfFgyTnRg8wCSSpckzs8KNwDvZsmWTe+65R3LkyKERwG8WiAgzq1OmTNFSoUIFSZEihUycONEdvX3gfzNSImA23iIzZ86UpEmTyuuvv25SuFesWKEvW0TptpgWbOvWrRql/oUXXjA5w4kXVN68eSVr1qym04IhSrHltGDJkyc3nRYsUaJEptOCxY8f33RaMKTFspwWDO1vOS0Ynn/LacHQ//ueFgzB79CGH374oa5cs4JZ4W7Xrp3K9osvvnhLL2/892LHjq1Le283nOHmDDdnuDnDzRluznBzhpsz3BbhDDdnuDnD7fcM99q1azWt26OPPqrfshcuXHBHwk8ohBv7WU+ePClnzpzRpQp/BNIp4VzkscNIEfaD3kqKpV69emkeWMyI324o3BRuCjeFm8JN4aZwU7gtQuGmcFO4/RZuzGo/+OCDOuH59ttvu1obhEK48SHevHlz+eSTT/7jTbhr1y6NRo5OG0sTbzWfIZa1zpkz544EraFwU7gp3BRuCjeFm8JN4bYIhZvCTeH2W7jbtm2rso2C/2yJUAj34sWLJWXKlPox9p+iFy9fvlySJUumjY2Oy6cPFwo3hZvCTeGmcFO4KdwUbotQuCncFG4/hfvIkSMa+6pkyZLXhbtIkSIyaNAgGTp0qF6br4MIf5ZQCDcaCrPVlStXll9//dXVBrNy5UpJlSrVdeH+5ptv3JG7Hwo3hZvCTeGmcFO4KdwUbotQuCncFG4/hRuriQsVKqSZnqKE+4knntDJUjzTWKWMbcFhJhTCjZyEzz77rEav/k/CDWl55plnKNweQuGmcFO4KdwUbgo3hZvCbREKN4XbV+Hev3+/5tBHoOoo4UbWlffee0+6dOmiqZbDHrGcwk3h9gYKN4Wbwk3hpnBTuCncFG6LULgp3L4KdxS4d6OE25rLhEK4kZ84c+bMUq1atf94E2JZQ7p06a4L99KlS92Rux/sf4haemERBKtDZ4sI8xaFG/cu8lAjB6NF4d62bZvkzJlTihcvbla4CxcurKPCVoW7bNmyOui0bt06V2sHvNuqV6+ug44+DRT/lTRp0kTf21OnTnU1tujYsaOkSJFCRo4c6Wps8dFHH2l2GfxaBO2O9sd9YBE893j+0Q9YBP0++n+8B8Ig3K1atXK1NgiFcG/evFmyZcsmdevWdTU3Z9myZZo4H40NeduwYYM7cvczevRoiRMnjjRs2NDV2GLGjBmSIEECneG1KNy4d/GxgRnec+fOuVo7bNmyRV82EE4E4LAGMiNgwAGDLjt27HC1djh16pTuAcOg4+rVq12tHbDcrnz58pIkSRJZsGCBq7UFBlvjxo2rg88WwYxQrFixNNCQRbp27ap7QPFrEbQ72t/qKkc893j+0Q9YBP0++n+8B3xcfo20ze3atbsu3MgYdStpmX3He+E+evSoLrOBPJcqVUoF+o9kBHKOZYnotGLHji1DhgyRY8eOuaP/GZy7fv16OXHihKu5fcybN0+vsU+fPq7GFljJUK5cOR0hu3Lliqu1A+7dihUr6qjgf9o6EUb27Nmjq1gw4IRc+tbArP4bb7yhy8nuRFrCO83Zs2c1bycG3LC9wBqXLl2S9u3byyuvvCJr1651tbbo3r27lC5dWjOTWGTAgAEa5Rf7HS2CSQcMOOPXImh3tD/uA4vgucfzj37AIuj30f/jPYD3gW9QuD0GjTdw4EDJkCGDPPzwwzr7W6ZMmT/MrY2luBs3btQRsqhZ7l69esnVq1fdGX/M4MGD9YGfNWuWq7l9YIYH/9stfmwDRDDctGmT7N27V9veGrh3McuL5cQWBxwuXLigy8oxu2upk44CL9jt27fr3yDswUWCwKqWXbt26TPwn9I/hhG8ozDohIE3DD5YBIF38A7E9gKLHDp0SK//Tgz43w1gggXXj1+LoN1x/bgPLILnHtePfsAi6PfR/+M98Ged5W6Cwu0xaLymTZtebzyUxx9//E+N/iIfN2ZK8N9BWPpPPvnkD/eFQnYg25hhbNy4sf73CSGEEEIIIYTcHAq3x6DxWrdufb3xUBInTiyzZ892Z9wc/HcxW4QlypB0lL59++rsWVCZMmWKJmmHbGM5653YQ4xZLSxptzq7gSARx48fD32uvpuBjgnXj1Fe3L/WwDOHEX6s9PBxdPd/BasacO13qv+506DNce/jHrC4wgHP/OnTp7UP8HE54V8B3n14B1pc4QGwXQ7Xj9U+FsHKFly/xRUuAO2O67cYwwVY/wZGv4/+H+8BH78B8b/5RuHGFjFL3zLeC/e77777O+F+8sknNZr1nwV7ImrUqKH/3WTJkkm+fPkCC/YN9ejR446mo0HQLKTEGj58uKuxBf72DRo0kH79+plcUo2BH0TnxH1o8YPr4MGDGqG/U6dO+sKxBkQTe7ewh//w4cOu1g5YZYR8nUgJs3v3bldrBwwyIDozYhhgWaFFsMqsfv36f7htLMyMHTtWg8MuXLjQ1dgCaaGwHdBqWji0O9of94FF8Nzj+Uc/YBH0++j/8R7wcdA5SLgtTZ6YF26A/Ma1a9fWlDMvvfRSYIHo3OmP3DFjxki8ePGkUaNGrsYWX3/9ta5gqFq1qskZPmxjwPYHBM6zGqUcOfTz589vNkp57ty5NQUiBl+sgdl9pEVLlSqV2Sjl2NKEgWGrUcox4Bw/fnz58ssvXY0tsKIPsWqsCke3bt002C1+LYJ2R/vjPrAInns8/+gHLIJ+H/0/3gM+rvL5d+F+//33ddYezoatwGEPBkzh/heYLcVSRSxVwYd8ULkboiJPmDBB00Jh34NFsFUAORhr1aplUrgxugvhrFChgtk83NmzZ9etHRaD5mCGv0CBAirdCB5mDfTRGGx69tlnzebhfv311zXQp9Uo3RhsRh5ibPGySIcOHfSD2+oqt969e0vSpEn11yJod7Q/7gOL4LnH82910gn9Pvp/vAd8zMMNZ2vTps11X2vRooWu3EX2GaxcCXswSAq3R2B0L3Xq1GZzMM6dO1fzMGN006JwYyVGlixZNNifReFGKqg8efLo9o4/CnAYVn766ScpWrSoPP/88xqp3hoQbqR0fO655+7o1p47BT6wkBIuY8aMsmTJEldrC2wnwAen1SXFSImJQWekQrXIxx9/rHn48WsRtDvaH/eBRfDc4/lHP2AR9Pvo//Ee8FW4MWF4o69hEB0DSGhbznDf5bz33nu/E26MfmHEJIxQuCncFG4KN4Wbwk3hpnBbhMJN4aZw+y3cuIeLFy+uBSv2sDwe6X4t4K1wo+EQNAABhG4Ubiy3wV7fMAbVonBTuCncFG4KN4Wbwk3htgiFm8JN4fZXuAEC3iKPOgq+Y5BT3ErWEW+FGw2FwBk5cuT4nXAjvdcrr7wi48aNC10kZwo3hZvCTeGmcFO4KdwUbotQuCncFG6/hdsy3gr3okWLdP3/jbJ9Y6lSpYp+oIUJCjeFm8JN4aZwU7gp3BRui1C4KdwUbgq3r3gr3PPnz5cECRIEyjYKIjkjjUyYoHBTuCncFG4KN4Wbwk3htgiFm8JN4aZw+4q3wo0HDzmpkSYIIeUx250zZ06pXr26xI0bVz9MkeYrTFC4KdwUbgo3hZvCTeGmcFuEwk3hpnBTuH3F6xnul156SQYOHCjLly+XfPnySZMmTWTz5s0qZChhy+mGfenIQWm1s5k1a5ZGoa9Ro4ZJ4V65cqWkTZtWpcOicG/dulWyZs0qBQsWNJuHG7KNuBUW83BjxRIGW5CLfu3ata7WDvjAwlYpfHBjS5VF3nzzTQ2MOnnyZFdji3bt2knixIll2LBhrsYWPXv2lESJEumvRdDuaH/cBxbBc4/nH/2ARdDvo//He4DC7R/eCjdmr1evXq0zXRs2bNDZ7QYNGsjFixdl27ZtsnHjRrl06ZI7OxxAuJMkSWJauJMnT66rGCwK94oVK3R0t1y5cnLu3DlXawcIN2b4LQt3/vz5dVXPzp07Xa0dINwYZM2QIYNp4cYMn1Xhxjseg86TJk1yNbZo27atCqdl4U6YMKFp4Ub74z6wCJ57PP/oByyCfh/9P4XbT7wV7hv59ttvJVOmTFK1atVQ34Tr1q2T9u3bm/3YgHB17NhRvvjiC7l69aqrtcPevXvl/ffflyFDhpjsbI8cOSLdu3eXfv36ydmzZ12tHbCkGksp8bEZtu0yf4Zff/1VBgwYIF26dJEDBw64WjtgkHHkyJG6nNTigAuYMGGCvgMxyG6RGTNm6OwmVjtZZMGCBSqb+LUI2h3tj/vAInju8fyjH7AI+n30/3gPWJx08p3QCPezzz4rr7/+euhSgd0IHjB8dIZt5v7PgtzquH7LI3sWBxpuBPn3cR/g1yK4bqvXHgX6Qct/A+t9AJ5/y38Dtj/b3zK4ftwDVrHe/j4TOuGGkBFCCCGEEEIIIXcaCjchHoAI3QgYMmXKFC34zxYLrh37dy9fvuz+MjbYt2+fLiNk+0/R/t5a0EBsIUCWBrb/FA2YGraAqP8JbKFZunTp9fa3eg/gur/++mtzW0qwqhExi6y3PwqufceOHe4vYwOs6NqyZcv16/8r2h/3E/eB314o3B6Ahw0Pxvnz51n+VSwuqe/Vq5fmnUdBOrzYsWObKkj1F3X9yEZw5swZ95exwdixYyVVqlR6/fHjx5c4ceIE/p3CWm5s/1deeUV2797t/jI2gGwhMKjV9sf14rpx/chIggCSloBglC1b9vozgOch6O8U1nJj+yNTx1dffeX+MjZAwMg33njDbPuj4Lsn6vr79u3r/jI2wBJ6xC6Juv6/4huwdu3a5gYu7zQUbg/AvvTPP/9cUyGwvCnTp093fxk7IPf6Pffcw/Kvgijt+ACxxGeffRb4t7BYEKkemSgsMXPmTIkZM2bg38NawccmZrktsWnTJs2/G/T3sFiGDh3q/jI2wAoXpEQM+ltYLNaitEO4GzduHPi3+G9Lnjx5NBAtuX1QuD3g9OnT8uqrrwY+NBYL5NMaiM4edf1Ii5I3b16d6bFSkH896vrxnCNityXwgfnII4/o9UO8kIs76O8U1oJZrXvvvVev/4UXXjC3pBCCiZSIuH7cB5kzZw78O4W14P3+0EMP6fVjpcc333zj/jI2QIYO9Pm4/vvuu0/Sp08f+HcKa0EqxCeeeEKv//HHH9dMJZbATGSlSpX0+lGQGiro7xTWAjnEzG7U9X/wwQfuL2MDCHerVq2uXz9ysQf9nW6ldOjQwdx31J2Gwu0BFO7fF4vC3alTp+vXj/scMx7bt283U9q0aXP9+qtVq2buRYH8qw8++KBef4ECBWTJkiWBf6ewFiwhjBEjhl7/888/b1K4n3zySb1+yBb24AX9ncJakAYIoo3rf/rpp00LN5aD9u/fP/DvFNaC/MP58+fX68eAk0Xhrly5sl4/CmQp6O8U1vL999//7vqxvNoSEO7WrVtfv34sB0efEPS3+rPl0KFDpqO93wko3B6A/ao1atS4/rAVK1ZM8zFbKZDN3LlzX79+5KG0xo3CjZFOayD3eNT1WxXu+++/X6+/fPnycvHiRXfEBvPmzVPRwPVbFe5kyZLp9WN1A3LyWwL5ZzGrj+u3LtyY6cOAmyUQJLFMmTJ6/VjpYF24R40a5Y7Y4e23375+/daFG9+DxD8o3B7w78Ldu3dvd8QG6Gxu7GytC3fTpk01F7ElPv744+vXb1W4H3jgAb1+fHha23uFGd1YsWLp9VsX7mzZssmGDRvcERusWbNGnnnmGb1+68KNPeyI1G2JgwcPyksvvaTX//DDD5sX7gEDBrgjNsAAc4MGDa5fv3XhtjjpEgYo3B7w78Ldr18/d8QONwYNsy7ciNJtLZ3DRx99dP36rQt36dKldTmYJRCVmMIdEe6sWbPqEktLfPfddxTuG4TbWuDQ/fv3S/HixfX6Kdz3aBBNSyA7DaK0R12/deHG9zCXg/sHhdsD/l24e/bs6Y7YAGnA3nrrrevXT+GmcFO4KdyWoHBTuCncFG5cPwqFm8JN4fYPCrcHULgp3BRuCjeFm8KN66dwU7gp3BRuS1C4KdxhgMLtARRuCjeFm8JN4aZw4/op3BRuCjeF2xIUbgp3GKBwewCFm8JN4aZwU7gp3Lh+CjeFm8JN4bYEhZvCHQYo3B5A4aZwU7gp3BRuCjeun8JN4aZwU7gtQeGmcIcBCrcHULgp3BRuCjeFm8KN66dwU7gp3BRuS1C4KdxhgMLtARRuCjeFm8JN4aZw4/op3BRuCjeF2xIUbgp3GKBwewCFm8JN4aZwU7gp3Lh+CjeFm8JN4bYEhZvCHQYo3B5A4aZwU7gp3BRuCjeun8JN4aZwU7gtQeGmcIcBCrcHULgp3BRuCjeFm8KN66dwU7gp3BRuS1C4KdxhgMLtARRuCjeFm8JN4aZw4/op3BRuCjeF2xIUbgp3GKBwewCFm8JN4aZwU7gp3Lh+CjeFm8JN4bYEhZvCHQYo3B5A4aZwU7gp3BRuCjeun8JN4aZwU7gtQeGmcIcBCrcHULgp3BRuCjeFm8KN66dwU7gp3BRuS1C4KdxhgMLtARRuCjeFm8JN4aZw4/op3BRuCjeF2xIUbgp3GKBwewCFm8JN4aZwU7gp3Lh+CjeFm8JN4bYEhZvCHQYo3B5A4aZwU7gp3BRuCjeun8JN4aZwU7gtQeGmcIcBCrcHULgp3BRuCjeFm8KN66dwU7gp3BRuS1C4KdxhgMLtARRuCjeFm8JN4aZw4/op3BRuCjeF2xIUbgp3GKBwewCFm8JN4aZwU7gp3Lh+CjeFm8JN4bYEhZvCHQYo3B5A4aZwU7gp3BRuCjeun8JN4aZwU7gtQeGmcIcBCrcHULgp3BRuCjeFm8KN66dwU7gp3BRuS1C4KdxhgMLtARRuCjeFm8JN4aZw4/op3BRuCjeF2xIUbgp3GKBwewCFm8JN4aZwU7gp3Lh+CjeFm8JN4bYEhZvCHQYo3B5A4aZwU7gp3BRuCjeun8JN4aZwU7gtQeGmcIcBCrcHULgp3BRuCjeFm8KN66dwU7gp3BRuS1C4KdxhgMLtARRuCjeFm8JN4aZw4/op3BRuCjeF2xIUbgp3GKBwewCFm8JN4aZwU7gp3Lh+CjeFm8JN4bYEhZvCHQYo3B5A4aZwU7gp3BRuCjeun8JN4aZwU7gtQeGmcIcBCrcHULgp3BRuCjeFm8KN66dwU7gp3BRuS1C4KdxhgMLtARRuCjeFm8JN4aZw4/op3BRuCjeF2xIUbgp3GKBwewCFm8JN4aZwU7gp3Lh+CjeFm8JN4bYEhZvCHQYo3B5A4aZwU7gp3BRuCjeun8JN4aZwU7gtQeGmcIcBCrcHULgp3BRuCjeFm8KN66dwU7gp3BRuS1C4KdxhgMLtARRuCjeFm8JN4aZw4/op3BRuCjeF2xIUbgp3GKBwewCFm8JN4aZwU7gp3Lh+CjeFm8JN4bYEhZvCHQYo3B5A4aZwU7gp3BRuCjeun8JN4aZwU7gtQeGmcIcBCrcHULgp3BRuCjeFm8KN66dwU7gp3BRuS1C4KdxhgMLtARRuCjeFm8JN4aZw4/op3BRuCjeF2xIUbgp3GKBwewCFm8JN4aZwU7gp3Lh+CjeFm8JN4bYEhZvCHQYo3B5A4aZwU7gp3BRuCjeun8JN4aZwU7gtQeGmcIcBCrcHULgp3BRuCjeFm8KN66dwU7gp3BRuS1C4KdxhgMLtARRuCjeFm8JN4aZw4/op3BRuCjeF2xIUbgp3GKBwewCFm8JN4aZwU7gp3Lh+CjeFm8JN4bYEhZvCHQYo3B5A4aZwU7gp3BRuCjeun8JN4aZwU7gtQeGmcIcBCrcHULgp3BRuCjeFm8KN66dwU7gp3BRuS1C4KdxhgMLtARRuCjeFm8JN4aZw4/op3BRuCjeF2xIUbgp3GKBwewCFm8JN4aZwU7gp3Lh+CjeFm8JN4bYEhZvCHQYo3B5A4aZwU7gp3BRuCjeun8JN4aZwU7gtQeGmcIcBCrcHULgp3BRuCjeFm8KN66dwU7gp3BRuS1C4KdxhgMLtARRuCjeFm8JN4aZw4/op3BRuCjeF2xIUbgp3GKBwewCFm8JN4aZwU7gp3Lh+CjeFm8JN4bYEhZvCHQYo3B5A4aZwU7gp3BRuCjeun8JN4aZwU7gtQeGmcIcBCrcHULgp3BRuCjeFm8KN66dwU7gp3BRuS1C4KdxhgMLtARRuCjeFm8JN4aZw4/op3BRuCjeF2xIUbgp3GKBwewCFm8JN4aZwU7gp3Lh+CjeFm8JN4bYEhZvCHQYo3J5Qr1696w+bdeH+4IMP3BE7dOvW7fr1WxfuOnXqyNWrV90RG4wbN47C7YS7YMGCcuTIEXfEBitXrpTkyZPr9VsX7tSpU8vatWvdERscOHBAXnjhBb1+68L9yCOPyKRJk9wRG1y+fFm/b3H9KNaFu3fv3u6IHW6cdKFw+4lZ4cYHO25YH8qpU6ekevXq1x8268L97rvvBv6dwlw6dOhw/fqtCzeec4z4B/2dwlqGDBlC4XbCnT9/ftm2bVvg3ymsZe7cuZzhvmGGe9GiRYF/p7CWTZs2SZ48efT6OcP9sIwaNSrw7xTW8vPPP0ulSpX0+lGsC/f7778f+HcKa8E3MCQ76vop3H5iVrgXLlyoN60PpWnTppIhQwZ90P7+97+bF+5cuXIF/p3CXKI+tlCsCve9996r149nAX+DoL9TWEuxYsWuX3+ZMmVMCnfcuHH1+pMkSaKrHIL+TmEtFStWlMcff1yvP1u2bCaFO1OmTHr9TzzxhC6vDfo7hbXUqlVLEidOrNefMGFC08L9j3/8Q0qUKBH4dwpradSokaRNm1av/7777jMv3Pny5Qv8O4W1NG/eXHLkyHH9+lFH4fYPs8KNfcBRN69vxdr+FQh3gwYNAv8WFgu2F1gT7u7duwf+LSyWIkWKyE8//eT+MjYYP368LiUN+ntYK+nTp5c1a9a4v4wNVqxYoTPbQX8PayVGjBgyefJk95exwd69e68vqWe5RwegLfHLL7/8Lo6R9YJJOAq3f1C4PSzYz2sJCHfjxo0D/xYWS8OGDc0Jd69evQL/FhYLZnesCffEiROvLym3XjJnzizr1q1zfxkbrFq16voqL+sFS8qnTp3q/jI22LdvnxQuXDjw72GtYKVTv3793F/GBpjhrlu3buDfw2Jp1qwZhdtDzAo39oAh6p9vpU2bNrJkyRJ3FTZAxzJjxozAv4fFguWEv/32m/vr2GDZsmW6dz/o72GtYP/i2bNn3V/GBps3b9ZgiUF/D2sFH9vWthQcPHhQ+vbtG/j3sFY+/PBDjWFgCWSlGD58eODfw1rBZBGCKFoCky5TpkwJ/HtYLLNmzTIXODYMmBXua9eu6Q3rY8H/dmv43F5/dWH7s1iD7f/7YpGgv4PVYvEdEPR3sFr4DWC7WGz/MGBWuAkhhBBCCCGEkOiEwk0IIYQQQgghhEQDFG6PQKAs7GVCAAmLYB8Prh8RKy2Cfdu4/nPnzplcUoS9/KdPn5YzZ87osipr4Jpx7SgWA6bgnsfeddwD1mIYAFw/nn30AZcvX3a1tkDfj+vHu8Ai+L45deqUXLx40dXY4sKFC3r9+LUI2h3Xb3Viyfo3IPr9u/UbEO/k48ePy5EjR/T3xIkTZl3lZlC4PQKRWt9++20ZM2aMq7HFpk2bNB/hkCFDTArXjz/+qEHzPvnkE5MfXAgU1bFjR00RBum0Bj60EDCpc+fO8vPPP7taO+Dl3adPH2nbtq2mCbIGPmgGDhyoOVh/+OEHV2sLBAx85513ZO3ata7GFpMmTZK33npLli5d6mpsMXv2bE2JhF+LoN3R/rgPLILnHs8/+gGLoN9H/4/3wN026IzAlvg+L126tFSuXFmLtXzx/4lQCDc6oUyZMknt2rVdTTiZNm2aJE6cWB84iyA6e/LkyUPfzjcDkZrTpk0rFSpUcDW2QIeeNWtWTQ9jcYYDs7vIRZsjRw6Two1BtlKlSml6qB07drhaW1SrVk2eeuopWb16tauxBWQrSZIkMmfOHFdji/fee08SJkwoY8eOdTW2QIT+BAkSmEuLFQXaHe2P+8AieO7x/KMfsAj6ffT/eA/cbWDWvVOnTpIuXbrr6cuQwhKDI8isc7OCjFFWvudCM8ONjzCICD5E0fBhLCNGjJCkSZNqHuag42EvGNVNkSKFvPbaa9eX1VgqCxculDRp0kiZMmV02U7QOWEueNmgA3/xxRd1tj/onDAXjG7ny5dPnnvuOVm/fn3gOWEuBw4ckGLFikn69Ol1kDXonDAXLNGrVKmSPP300zJz5szAc8JekIs3WbJkusor6HjYCwbbMeiOmaOg42EvXbp0kUSJEulv0PGwF7R71KRL0PGwFzz3eP7RDwQdD3tBv4/+H+8BvA+CzrlT5eTJk7J9+3ZNW/a3v/1NhRs54zFAhnv2ZiV79uya5izo30TBquWwrGgNhXAjJyFuwlixYskrr7yiN2MYS548eeSxxx7TWc6g42Evzz//vDz++OOSMmVKqVixYuA5YS6Y2Y0ZM6a+cMJ8n9+sFC9eXOLEiaMj/GXLlg08J8wFS7Xw8oobN66UKFEi8Jwwl5dffllf0OjnixQpEnhOmAsGlLHCJ0aMGFKgQIHAc8JeUqdOre9ADDwFHQ97wcTCo48+qqtcgo6HvWDAFdeP36DjYS9od1w/7oOg42EveO7x/KMfCDoe9oJ+H/0/3gN4HwSdc6dK1apVpX79+joh8o9//OP6LPefKbly5Qr8N1GQd37//v3O9vwmFMKN2S40NBoNS07DWjC7+8ADD0j8+PEDj4e9YFDlwQcfVOnKkiVL4DlhLpjdfvjhh1W68cERdE6YC2Y2H3nkEX3hYAtJ0DlhLhkzZtQBp6gPrqBzwlwQp+OJJ57QZwCDjkHnhLmgz4sdO7Y89NBD+sEZdE7YS7x48fQdgGWVQcfDXjDYiG+AJ598MvB42AuWE+P68Rt0POwF7Y7rx30QdDzsBc89nn/0A0HHw17Q76P/x3vgbvsGxkw1JsXwnYqZ7SCxvln5o/6sevXqsnPnTmd7fhMK4Ub0bgTRQVCtNWvWhLZ07dpVZzexfyPoeNgLgoVh0KFcuXK6qiHonDAXbClAZ1a0aFHdzx50TpjLxIkTVbTz5s2re7mCzglz+frrryVnzpz6op08eXLgOWEu2FKB0XPsEfviiy8CzwlzWb58ue5hx8DjoEGDAs8Je3n11Vf146xXr16Bx8Ne6tWrp7KJvZJBx8NeEDAL14/foONhL2h3XD/ug6DjYS947vH8ox8IOh72gn4f/T/eA3gfBJ1zpwq2/H333XfSqlUruf/++wPFOqhgArFv376B/ybKtm3bQhMMOxTCbYW5c+fqxyY6XYsgSjtm+Zo0aeJqbIFRPowi1qhRw9XYAvEZEDQMAy4W00IhsAhetIUKFdKI5RbBhxZWMlmMUg4aNGigAy4bN250NbZAlgasdPnmm29cjS0gHBh0xYCbRYYOHaqzfPi1CNod7Y/7wCJ47vH8ox+wCPp99P94D9xtYJ/16NGj9fskSqYxOITI5ciscrOCAIjYj24BCrdHIGgYXjYYQbLI/PnztbPF9gGLeagx2oclNlWqVDEZpRuRqTG7XbJkSTMd9I0cPnxYg4Zh0GHPnj2u1g6I0o7YBRh02rBhg6u1AwaZatWqpYOOCBRqEaTFhHDMmDHD1dgC0akxw4UVHhbBKjcsK8avRdDuaH+rUcrx3OP5Rz9gEfT76P/xHrjbJh2wz7pmzZryzDPP6JY3lGbNmmmAYxKBwu0RX375pQq31bRgmOGHcGM5lcUZTizXwegmZvl++eUXV2sHROlG4EAEDLOYFuunn37S7QTYJ4W4FdbAixuB0xCl/fvvv3e1dsDWKXzQ4IMLW0osghzE+OBGikyLYEYIwmU1D/HHH3+swo1fi6Dd0f64DyyC5x7PP/oBi6DfR/+P9wDeB3cT58+f129UbP3CcvcVK1aYnBj4IyjcHkHhpnBTuCncFG4KN4Wbwm0RCjeFm8J9dwo3+c9QuD2Cwk3hpnBTuCncFG4KN4XbIhRuCjeFm8LtKxRuj6BwU7gp3BRuCjeFm8JN4bYIhZvCTeGmcPsKhdsjxowZo/kHGzVq5GpsgbRIiRIl0gT7FoUb+2JSpkypkarPnTvnau2wZcsWDciRP39+OXLkiKu1w4EDBzRCN3KwI4CcNRCZvXDhwpIqVSpNQWKNixcvSoUKFTQ15IIFC1ytLerWratpZDD4bJHWrVtLnDhxZPDgwa7GFt26ddMcxPi1CNod7Y/7wCJ47vH8ox+wCPp99P94D+B9QPyCwu0RU6dO1SjVHTp0cDW2QDCGHDlySNOmTU0K99q1ayVfvnwaoRIBKqwBySxSpIi+bI4dO+Zq7YAo5UiJ9tJLL5kMRnL69Gl57bXXNEq7xbRYmNF48803JXfu3Dr4ZhGIRrZs2WTmzJmuxhYQTQy4jR071tXYon///vLss8/qr0XQ7mh/qwMOeO7x/FsdcEC/j/4f7wHOcPsHhdsj9u3bp3kYIV4WOXTokEyZMkWjHyLnnzWOHz8u06dP12VFly9fdrV2gHDhhYv0cBbTomGQZd68eTJ79mxNkWWNS5cuyaJFizQ1zMmTJ12tHa5cuSLLli3TgdejR4+6WltgWw3egVjtYRGkw0N6UItbSsDWrVv1+vFrEbQ7rt9iWkSA5x7PP/oBi6DfR/+P9wDeB8QvKNyEEEIIIYQQQkg0QOEmhBBCCCGEEEKiAQq3R2zatEl69Ohhdv8a9vD26tVLvvrqK5NLyrGcCtFZETzP4v4d7Nv+7LPPZPjw4SajtJ85c0aGDh0qAwYMkBMnTrhaO2Abweeffy6ffPKJbi+xBuJWTJw4Ufr06WNyDz/AlpqePXuaXVKM7TTdu3c3u63s22+/1evHr0XQ7rh+3AcWwXOP5x/9gEXQ76P/x3vAYhwj36Fwe8SECRMkRYoU0qxZM1djC+xdRYRiBA2z2NmsWrVKo3QjaJhF4dy2bZtkz55dA6dZ3MN68OBBKVCggAZN2bVrl6u1A9KClS5dWoMmrVu3ztXaAYNsr7/+uqRNm1YWL17sam2BDB3I1IBYHhZBwFREKR4xYoSrsUXv3r0ladKk+msRtDva32rgXDz3eP6tZupBv4/+H++BMEy6IC4Rss9YiclC4faIcePGSeLEiTVKt0Uws//kk09KtWrVTAo3gsUhByUiVVtMC4bRbURohXRaFW6kREMe6p07d7paOyAtWPHixTUX/5o1a1ytHfCBhRz8+OBE8DiLNGjQQJIkSaKBoyzStm1bSZgwoa50sQhW+CVIkEB/LYJ2R/vjPrAInns8/+gHLIJ+H/0/3gNhEO6BAwfq9+ycOXNcTbihcN8Acvy1bNny/5S7JSIi/velTp1a/zdZZO7cufqxXa9ePZPCjfswS5Ys2tlanOH+4YcfJE+ePFKiRAn5+eefXa0dfvrpJylatKg8//zzJqMUY4b75Zdf1gGH77//3tXaAR9YNWvWlIwZM2qmAou89dZbOug4bdo0V2OLzp07y9NPPy2jRo1yNbbAlqqnnnpKfy2Cdkf74z6wCJ57PP/oByyCfh/9P94DPgs3ZrZHjx4tOXPmlMcff1wnEy1gXrgxU4bZIoTZr1Gjhgrtv5dOnTrp7Bo+crGP8k5B4aZwU7gp3BRuCjeFm8JtEQo3hZvC7b9ww7nwLXfPPffoig0rK7ZMCzeWKEJeX3jhBS1dunRRqf33gocbNweWst7JpVz430LhpnBTuCncFG4Kt0Uo3BRuCjeFm8Ltt3Bv375dMmTIoMKNLQJLly51R8KNWeHevHmzdloPP/ywPPjgg1KpUiWNAh4E9o0gUBFuDuwhxVKIOxEll8JN4aZwU7gp3BRuCjeF2yIUbgo3hdtv4cZq4nfeeUeDH8KpYsSIIXXq1NHo859++mmoM1CEQrgvX76sH2MIJHXt2jVX+8cgyiX2Djz22GPyxhtvaECiK1euuKO/5+LFi7J8+XL90H300Uf1gV+4cKE7evugcFO4KdwUbgo3hZvCTeG2CIWbwk3h9le44WdIa4ZZ7QceeECF+7777tNl5Xius2bNKlOnTnVnh49QCDeWJ7Rq1Upz9P7ZmxDSitltRPzGbPef4ZtvvtEoubFixbojL3wKN4Wbwk3hpnBTuCncFG6LULgp3BRuv2e48R2LKPvIOAThfuKJJzTNW//+/WX48OGyY8cOd2b4CIVwIzcdQuW/8sorcv78eVcbDD7aIM6lSpXSfHb4z7cC0lFgNAZLIvDRd+nSJXck+qFwU7gp3BRuCjeFm8JN4bYIhZvCTeH2fw/37t27JVeuXCrcWFr+7bffuiPhJhTCjZsQ8ox92L/++qurDWb9+vVSsGBBeeSRR1ResZ/gVujXr58ugYgZM6Y0btxYTp8+7Y5EPxRuCjeFm8JN4aZwU7gp3BahcFO4KdzhCJqGlGAQbiwvZ5Ryj8DoyLPPPiuvv/76fxRu7MVOnDixNjQ6rlv9cIFw47+LUqZMGTl58qQ7Ev1QuCncFG4KN4Wbwk3hpnBbhMJN4aZw+y/cGzdulOzZs6tHwcfmzJnjjoQbc8INaYkKR4+O61aXlPft2/e6cFetWlVTi90uxo4dq8vZmzRp4mpsMXPmTEmWLJm2s0XhXrFihaRKlUoHehAg0BqIXonn/MUXX9T8+dY4cOCA5M2bV7Jly6Z5LK2BvrZYsWK6mmnNmjWu1g74wKpcubKkSJHijgTtvBtAgFN8oH311VeuxhbvvvuuxI8f/46mJ72TYEtfvHjx9NciaHe0P+4Di+C5x/OPfsAi6PfR/+M9QOH2j1AIN2atka6rWrVqGlH8j4BwP/PMM3+JcFepUuW2CvfEiRP1f3OLFi1cjS3wUOJju27duiaFe9WqVSqc2DphdYYb+34QuNDqDHfhwoUlX758Zme4y5Ytq5FMrc5w16hRQweMb/W9FRYQ5BSDjmGOZPtHdOrUSePVjBw50tXY4qOPPlLhwK9F0O5of9wHFsFzj+cf/YBF0O+j/8d7gMLtH6EQbkQZx6wPROw/8b8K941LykuXLn1bl5Rjhg///+fNm+dqbAHJQCT66dOny9WrV12tHSBcAwcO1FHe2xms727h+PHjMmzYMBkzZozJAYezZ8/KF198ISNGjLitA313CxcuXJDx48fL4MGD5ciRI67WDhhkxAcnornu27fP1dpi9uzZ+g7EHkCL4Hvlk08+kQ0bNrgaW2DQGZMe+LUI2h3tb3XADc89nn/0AxZBv4/+H+8BnyedKNyecuzYMf0Ixb4OCDDk+48+xleuXKl7gNDQ2A8NAb8V8LDff//9kihRIk1FdubMGXeEEEIIIYQQQkgQ/y7cVgZQvBZuJFHHbEemTJk06jj29iCozh9JNIQbM9toaPzi/74VPvzwQ71B2rdvr/niLC5tJoQQQgghhJBb4d+FGwGRLeC9cGMvBxotqjz++OO65PhmYElGly5dNNIf0ns1bNjwT81yYwkzIiQiQjAStc+YMcMduX1gSTWW0yJ4lkUQNGrcuHG6nMriknLsW8Y+fmwpuHz5squ1A/bwTp48Wb7++uv/GBwxjGDlDvqdKVOmmFxZgz1rGAlHtgZsL7DGlStXNH0KltUfPnzY1doCaTwRPHTv3r2uxhYIFjh69GizS+rxoY7rx69F0O64fotBIwGeezz/t5rONyyg30f/j/cA3ge+cqNwIybBunXrZM+ePTJgwIBQbxfxXrixrPtG4f5PyxMgavhw69Onj0Z7xPJwRL1GIvab3cDYOzlr1iwNWIWZdATtuRN7aCAbGCho27atq7HF/PnzNS0WBkksrizASxZBw6pXr25yDzM+NgoUKCDlypXTrSTWOHTokJQqVUoDp6G/ssbp06c1OisitVvcw4r3FlIiIi0aMnNYBAFDsaINg24WwWQBgiZBuizy6aefampQ/FoE7Y72x31gETz3eP6tBg5Gv4/+H+8Bn4OmrV+/XtsRzpYgQQKdSEN8oiJFioQ6IKT3wo30CDcK95NPPvmnNuAfPHhQg0/EihVLHn30UY38fLOPOHRyEF38+4gQjIf+TsywYHYbgwSNGzd2NbbA3x0DKkjHZlG4EY0f8QcQq8BiWrAtW7boc4hVJhaDZmGFR+7cuXXQyWpaMLyQEXvDalqwihUr6jvOalowfGjiA81qWrDWrVtL3LhxZciQIa7GFt26dZM4ceLor0XQ7mh/3AcWwXOP5x/9gEXQ76P/x3vAZ+FGlhEMnEV5G77ratWqpfG4tm3b5s4KH2aFG5w/f15HCpFmAP9dRDmfMGHC9QLRHjRokAruSy+9JOXLl9f6OwWWUuJjs2XLlq7GFtjngYcUna1F4cbWB8jWq6++ajYtWJ48eaREiRJm04IVLVpUBxyspgVDjA6M8FtNC1azZk39OFmyZImrtcVbb72lAVKxvcsinTt31tgzo0aNcjW2+Pjjj3XQGb8WQbuj/XEfWATPPZ5/9AMWQb+P/h/vAZ+Fe//+/RoHCyvWMHiAbzpkHwg7poUbYLk4Ou+omW7sAY8RI4b+34hEDsHt0aOH7p3AMtb/lOc7OqFwU7gp3BRuCjeFm8JN4bYIhZvCTeH2X7jx/Y4tYidOnNDVwvArC3FpzAs3wN5IpPuCYN/4byVMmFA++OAD2bVrlzvzzkLhpnBTuCncFG4KN4Wbwm0RCjeFm8Ltv3BbxWvhBu+9997vJDlFihT/VUCZS5cu6fLyggUL6gdtzJgxdak5NvNj7+DdAIWbwk3hpnBTuCncFG4Kt0Uo3BRuCjeF21e8FW7MbiOqeJs2bX4n3JjhRkRxHL9VsLQBH7KbN2/WwFxYYo7OrX///pqG6U6H4adwU7gp3BRuCjeFm8JN4bYIhZvCTeGmcPuKt8KNtDg9e/bUNEk3Cjf2YGMTPoKbXbhwwZ196yxdulTTheHfTJYsmUpes2bNZMGCBe6M2w+Fm8JN4aZwU7gp3BRuCrdFKNwUbgo3hdtXvBVuJH5Pnjz572T7xoIZanyg/S8gTRhy/iJfHJaq499FtHJIN2585AW+neJH4aZwU7gp3BRuCjeFm8JtEQo3hZvCTeH2FW+Fe/78+ZqP799FO6pUqFDhf957jSXkyAm3YsUKGTx4sOaAfuihh+SZZ57Rmx7L2W9nZD0KN4Wbwk3hpnBTuCncFG6LULgp3BRuCreveCvcePDixYsn2bJl09lsLPvOnj27/ufYsWPrhynSeP1V4OZGTu5GjRrpzY6C/xu5vG8XFG4KN4Wbwk3hpnBTuCncFqFwU7gp3BRuX/FWuOfNmyfFihXTgGaISp4vXz5p0qSJbNy4UWrXri116tTRHG9/JVevXtXgabjRUfCf/5vgbP8t48ePl6RJk8rbb7/tamyBYHgpU6aUGjVqmBTulStXSrp06VQ6LAr31q1bJWvWrFKoUCE5evSoq7XDwYMH5YUXXpAcOXLcNakKbydYsYTBFqwwWrt2rau1A945GFBG9ozFixe7Wlu8+eabGhh18uTJrsYW7dq105V2w4YNczW26NWrl6Zvxa9F0O5of9wHFsFzj+cf/YBF0O+j/8d7gMLtH94KN2a4ICD48MZe65w5c+pDePHiRdmyZYvOgITthkSKMnS2TZs2dTW2mDlzpna21apVMync2NqAFQ5ly5aVc+fOuVo7QLgzZ84sBQoUMCvc+fPn1xnenTt3ulo7QLiLFy+uq1zWrFnjau2A9xlWt2DQETFMLNKgQQNJkiSJTJo0ydXY4t1335WECRPK0KFDXY0tevTooVsJ8WsRtDvaH/eBRfDc4/lHP2AR9Pvo//EeoHD7h7fCfSOY4UZgs7CP+uAjE/vGJ06c6GpsgYEUjOxiWRVWG1hjz5490qlTJxk4cKDJzvbIkSPy4Ycf6nLCs2fPulo7YEl17969pVu3bn/pdhlfwPadTz/9VN577z3Zv3+/q7UDBhkxw9WhQwfZsWOHq7UFBp0hG+vXr3c1tsCS2tatW8vy5ctdjS0QuwfXj1+LoN1x/Va3VOC5x/OPfsAi6PfR/+M9YHHSyXdCI9zPPvuspvH6X1KB3e1AMi9dumT2QbN+/di+gOvHVgaL4Ppx7bd7K8fdgvXrB7h2PANWrx99H67f4oAjsH79COSK68evRXj9tq+f38C2r993Qifcv/76q6slhBBCCCGEEELuHBRuj8CS2m+++UajNVsEqxeWLVtmdjklRrWxjxt7ma2yevVqjdZucUk94lPg2hG74nZmR7ib2LRpk16/1Rlu9P1YVopZDovs3r1b34EWYzgAxG5A4CRkLLDI3r179frxaxG0O67fYgwPgNhNeP6tfgOdPHlSli5dqsGhra7y8RkKt0cgaBhSAnXp0sXV2AFLaBYsWKABs5o3b67CAemyVCBbiMyPgCEIIBV0TpgLXrJlypTRKPV/dQYCH8CA22uvvSYVKlSQffv2uVob4OPi+PHjmoHipZdeuh4U01JBoESkw0GUfnx0BZ0T9tK+fXuN1I8sJRb56KOPNHDiV1995Wpsgb2ryEhjNUo72h3tj/vAInju8fwjlo1FVq1aJUWKFJFmzZqZHXT1GQq3R4wePVrixIkjDRs2dDU2wMwuolPiQ/tvf/ubRipHPnSkgbNUkA7svvvu0yitb7zxRuA5YS6IzPnQQw9pLmrIlzUOHDig2RgQINLaKg9konjnnXe0/7v//vulfPnygfdImAuycCBC79///ncpXbp04DlhL8hBHC9ePJkxY4a7M2zRqlUriRUrlgwaNMjV2KJr164SM2ZM/bUI2h3tj/vAIl9++aU+/0j7axFMOuEdgPcfVrwRv6BwewSikyMHX4sWLVyNDTCSh0GGe+65h4VF08IhYrc1sJwQo9uY4fjxxx9drQ0mTJggMWLECLwfWGwVpEbEslKLYGbvqaeekpEjR7oaW2BmF2mRrM7wot3R/lZneBGdHc+/1dS4S5YskWeeeUZX+WHFD/ELCrdHYHQPnU3Lli1djQ0g3FhGHfTxxWKvVK9e3axwY3Yf20qsCff48ePlscceC7wfWGyVNGnS6IenRTp37qyz/EiNaRGkhIRw4tciaHe0P+4Di0C48fxja41F0O9lzJhRatasSeH2EAq3R1gWbnSwUR9cmOHDCK+1gmVUWE6OEU7kogw6J6wFohnV/pZnuK0KN/Yuxo0bV9s/aktJ0H0S5tKuXTvJnDmzLqnEDEfQOWEt6Ptw3Wh/yzPcFG4KN4Wbwk3h9hMKt0dQuCPChcA5FkGE7ixZskiVKlXMRanGB1ZU+1O4bQo39i6i/XH9FqP0oh+sVauWfnAhaJol0PdhoBHtD+GgcFO4LULhpnBTuP2Fwu0RFO6IcL3//vvuiC0Qpfu5555T4bTGgAEDrrc/hdu2cBcsWFAOHTrkjtiifv36Osu9du1aV2MD9H14x6P9KdwUbgo3hdsiFG6/oXB7BIU7IlxYWmkRpAXDDDeidf/yyy+u1gYIkhPV/hRuznBbzMWPDyx8aOGDy9oeZvR9nOGmcFO4KdwUbgq3r1C4PYLCTeGmcFO4KdwUbgo3hdsiFG4KN4Wbwu0rFG6PoHBTuCncFG4KN4Wbwk3htgiFm8JN4aZw+wqF2yMo3BRuCjeFm8JN4aZwU7gtQuGmcFO4Kdy+QuH2CAo3hZvCTeGmcFO4KdwUbotQuCncFG4Kt69QuD2Cwk3hpnBTuCncFG4KN4XbIhRuCjeFm8LtKxRuj6BwU7gp3BRuCjeFm8JN4bYIhZvCTeGmcPsKhdsjKNwUbgo3hZvCTeGmcFO4LULhpnBTuCncvkLh9ggKN4Wbwk3hpnBTuCncFG6LULgp3BRuCrevULg9Yty4cZI4cWJp2rSpq7EBhTvCihUr9GVTrlw5OXfunKu1AYVb5ODBg5I/f3557rnnZOfOna7WBhTuiHBjsC1lypSyaNEiV2sDCneEtm3bSsKECWXo0KGuxhY9evSQBAkS6K9F0O5of9wHFpk0aZIkSZJEGjRo4GpsgX4f/T/eAxRu/6Bwe8SECRMkRYoU0qxZM1djAwp3hFWrVulHZ4UKFTjDbVS4CxQoILlz55Zdu3a5WhtQuCPCjXdc2rRpZfHixa7WBhTuCB06dJBkyZLJiBEjXI0tevfuLUmTJtVfi6Dd0f64DywyZcoUFc5GjRq5Glug30f/j/cAhds/KNwesWnTJh3ZnTlzpquxAYU7woEDB3Qp3ZgxY8x1thRukTNnzugMx4ABA+TEiROu1gYUbpHffvtNJk6cKH369JE9e/a4WhtQuCPMnz9funfvLmvXrnU1tsC3Hq4fvxZBu+P6cR9YZOvWrdKzZ0+ZPn26q7EF+n30/3gP4H1A/ILCTe56KNyEwm0bCrdtKNyEEEJ8hsJN7noo3ITCbRsKt20o3IQQQnyGwu0R+/bt0z0s69atczU2oHBHwDLiGTNmyNKlS80tJ6Jwi/ZtWEo4Z84cc0HzKNwiV65ckeXLl+tyyp9//tnV2oDCHWHjxo36DbB7925XY4tt27bJ5MmT9dciaHe0P+4DiyCOydSpU2X16tWuxhbo99H/4z2A9wHxCwq3R6CjyZYtm7mAGRTuCNi/hSjVtWvXlvPnz7taG1C4RQ4fPiwvv/yylChRwtweXgp3JGhaw4YNJU+ePPrBZQkKdwTs30VqSGQssQjiV2TOnFl/LYJ2R/vjPrDIrFmzNEtHmzZtXI0t0O+j/8d7gEHT/IPC7REIlhUvXjxzERop3BHQ2SJCZ6lSpZgWzKBwI2herly59IPTmnBSuEUuXryoGQoQpXnBggWu1gYU7gitW7eWOHHiyODBg12NLbp16yaxY8fWX4ug3dH+uA8s8uWXX0r8+PGlbt26rsYW6PfR/+M9gPcB8QsKt0egs0mVKpW0bNnS1diAwh0BH52QLeRgZFowe8L9008/SdGiRVU4f/zxR1drAwp3ZIa7Zs2aKp5LlixxtTagcEfo3LmzPPXUUzJq1ChXYwtk6cCgM34tgnZH++M+sMi0adMkderU+j1oEfT76AfxHuAMt39QuD0Cwo3OhsJtV7ixnIzCTeGmcNsV7owZM1K4DQs3rt+ycEM4LQs32t+ycKdJk8a0cKP/p3D7CYXbIyjcFG4KN4Wbwk3hpnBTuC1C4aZwU7gp3L5C4fYICjeFm8JN4aZwU7gp3BRui1C4KdwUbgq3r1C4PYLCTeGmcFO4KdwUbgo3hdsiFG4KN4Wbwu0rFG6PoHBTuCncFG4KN4Wbwk3htgiFm8JN4aZw+wqF2yMo3BRuCjeFm8JN4aZwU7gtQuGmcFO4Kdy+QuH2CAo3hZvCTeGmcFO4KdwUbotQuCncFG4Kt69QuD2Cwk3hpnBTuCncFG4KN4XbIhRuCjeFm8LtKxRujxg/frw8+eST8vbbb7saG1C4I6xcuVLSp08v5cuXp3AbFO6DBw/Kiy++KLly5ZJdu3a5WhtQuCPC/dprr+mg6+LFi12tDSjcEdq3by9JkyaV4cOHuxpb9OrVS5IkSaK/FkG7o/1xH1hk8uTJkjx5cmnYsKGrsQX6ffT/eA9QuP2Dwu0RY8eOlQQJEkjjxo1djQ0o3BFWrFihH5ulS5eWc+fOuVobULhFDhw4IHny5JGsWbPKzp07Xa0NKNwR4a5UqZJ+cC5cuNDV2oDCHaFNmzYSL148GTJkiKuxRffu3SVu3Lj6axG0O9of94FF8B5ImDCh1K9f39XYAv0++n+8Byjc/kHh9gjMcEI8R48e7WpsQOGOgFnNVq1aSd++feXixYuu1gYUbpGTJ09Kly5dpFOnTnL06FFXawMKt8jly5elf//+0rx5c9m2bZurtQGFOwKegyZNmpjbUhDFrFmz9PrxaxG0O64f94FF1qxZo9+CI0eOdDW2QL+P/h/vAbwPiF9QuD0CD9jZs2flwoULrsYGFO4IV65c0Zlt3OPXrl1ztTagcItcvXpVtxKg4D9bgsIdAc8++oDffvvN1diAwh0BA634BsA70SKY1cP1W53dQ7vj+q0NuEdh9Rs4CvT7Ud+AxD8o3OSuh8JNKNy2oXDbhsJNCCHEZyjcHnHs2DFZtWqVuQjFFO4IGNnFkqqtW7fqbLclKNyR2Z0NGzbI999/b26En8IdWeHwww8/yOrVq+X06dOu1gYU7gh79+7VrWVHjhxxNbZA4EhcP34tgnbH9eM+sMiJEyf0G9ha0NAo0O+j/8d7wNoqtzBA4faI2bNna1qgHj16uBobULgjbNy4UcqWLatR6q2t5KBwi+7brlWrllStWlX279/vam1A4Y70g61bt5ZSpUrpR5clKNwRPv30UylcuLBMmTLF1dgCe3cLFSpkdg8v2h3tj/vAIggaVqxYMY1lYhH0++j/8R7A+4D4BYXbIxAsLU6cOOZSIlC4IyxbtkwjVJYoUYJRyg0KN6KU58yZUzJlymROOCnckf27SAmItEgLFixwtTagcEdo2bKlPgeDBg1yNbbo2rWrxIwZU38tgnZH++M+sMjEiRM1Sn2dOnVcjS3Q76P/x3vA6j5+n6FwewQ6G3xstGjRwtXYgMIdAUupcJ8jJQTzcNsT7p9++klnN/Lly2duWwmFO7KloEaNGpIhQwZzwknhjoAMBSlTpjQ7w4v3QIoUKfTXImh3tD/uA4tMnTpVUqVKJU2bNnU1tkC/h/4f7wGmBfMPCrdHfPnll5r03troJoU7Aj46s2TJIq+++iqF26hwY0sJhJPCbVO4a9asKRkzZjSXForCHaFz5856/aNGjXI1tvj444/lqaee0l+LoN3R/rgPLDJt2jRJkyaNfg9aBP0++n+8Byjc/kHh9ggKN4Wbwk3hpnBTuCncFG6LULgp3BRuCrevULg9gsJN4aZwU7gp3BRuCjeF2yIUbgo3hZvC7SsUbo+gcFO4KdwUbgo3hZvCTeG2CIWbwk3hpnD7CoXbIyjcFG4KN4Wbwk3hpnBTuC1C4aZwU7gp3L5C4fYICjeFm8JN4aZwU7gp3BRui1C4KdwUbgq3r1C4PYLCTeGmcFO4KdwUbgo3hdsiFG4KN4Wbwu0rFG6PoHBTuCncFG4KN4Wbwk3htgiFm8JN4aZw+wqF2yMmTpwoKVOmlObNm7saG1C4I6xatUo724oVK1K4jQp3oUKFJG/evLJr1y5XawMKd0S4ce+nS5fOnHBSuCN07NhRkidPLiNGjHA1tujTp488+eST+msRtDvaH/eBRaZOnaoDLo0bN3Y1tkC/h/4f7wEKt39QuD1i9OjREidOHGnYsKGrsQGFO8Ly5cv1ZVuiRAk5d+6cq7UBhVvkwIEDkjNnTsmUKZM54aRwi1y8eFHKly8vSZIkkQULFrhaG1C4I7Rq1Uqfg0GDBrkaW3Tt2lVixoypvxZBu6P9cR9YBKs848aNK3Xq1HE1tkC/j/4f7wG8D4hfULg9YtGiRVKpUiX57LPPXI0NKNwRtm7dKjVq1JAOHTrIhQsXXK0NKNwix44d0+fgzTff1NluS1C4RS5fviwffPCBvufWr1/vam1A4Y4wbNgwXeE0a9YsV2OLCRMmSIUKFfTXImh3tD/uA4vgW79y5cpmtxSg30f/j/cA3gfELyjcHnH27Fndu/nzzz+7GhtQuCNAsvfs2aOydfXqVVdrAwp3RLj2798v+/bt02fCEhRukWvXrsnhw4dl9+7doX7PBUHhjnD8+HH9Bjh9+rSrscXJkyd1Ow1+LYJ2R/vjPrAIVvbh+o8ePepqbIF+H/0/3gN4HxC/oHCTux4KN6Fw24bCbRsKNyGEEJ+hcHsEAmVhduvEiROuxgYU7gjYs4N9vBjd5Qy3PeH+7bff5NChQ7rCwdpyMgp3ZIYbq5uwysHalhIKdwTM7OIbAKvdLIIZXly/1Rl+tDuu3+oMf9Q3sNUZfvT76P/xHuAMt39QuD0CHxmvvfaaDBgwwNXYgMIdYdu2bRosBClBuIfbnnDjIwMZCpo0aaLibQkKd2RLQbdu3TQlzIYNG1ytDSjcEUaOHClVqlSROXPmuBpbIGgW0mLi1yJod7Q/7gOLLFu2TL+B+/Xr52psgX4f/T/eA9zD7R8Ubo9AlHJEaGSUcpvCjSjlKVKkkJIlSzJKuUHhjopSjr7OmnBSuBmlnMIdiVIeO3Zs01HK0Q9YjlKO9rccpTxevHhSt25dV2MLRin3Gwq3RyAyJ/JwN2vWzNXYgMIdgXm4bQv3wYMHpWDBgpInTx7m4TYo3MzDTeFGhgrm4WYebtwHFpkyZQrzcDMPt7dQuD0Co3upU6eWli1buhobULgj4KMzS5YsuqSOwm1PuLF3u2jRoiqciNRqCQp3RLixnBCDbkuWLHG1NqBwR8B2Ilz/qFGjXI0tkA4KwmU1LRTaHe2P+8Ai06ZNkzRp0uj3oEXQ76P/x3uAwu0fFG6PoHBTuCncFG4KN4Wbwk3htgiFm8JN4aZw+wqF2yMo3BRuCjeFm8JN4aZwU7gtQuGmcFO4Kdy+QuH2CAo3hZvCTeGmcFO4KdwUbotQuCncFG4Kt69QuD2Cwk3hpnBTuCncFG4KN4XbIhRuCjeFm8LtKxRuj5g0aZJ2Nq1bt3Y1Nrhy5Yq8884714WLwm1buKtXry5nz551R+xw5MgRKVasmLzwwguyd+9eV2uDyZMnU7gp3Nr+EA688y3y/vvv6/V/8cUXrsYWn3zyiQo3fi2Cdkf74z6wyIwZMyRt2rT6PWgR5CHPlCmT1KpVS3777TdXS3yBwu0Rc+fO1ZQAnTp1cjV2aNOmzXXhonDbFu569eq5WltcuHBBSpUqJYUKFZJTp065WhvMmzdP88+i/SnctoUbg84bNmxwR2zRq1cvvX4MQFlk6NChusoPvxZBu6P9cR9YBCtb0qdPr9+DFtm4caN+AzZo0MDVEJ8wK9w///yzvrR9Kj179tQclDVq1Ag8HtayZs0aqVq16nXhonDbFO6//e1v2v4lS5aUpUuXBt4rYS4YcMudO7dkzZpVR/qDzglrwQdmjBgxKNyGhRvXjfZPmjSpClfQfRL2gg9tXD9mOIOOh720aNFCkiRJor9Bx8Ne0O5of9wHQcfDXrCVAHnI8T0YdDzsZdiwYbrCoUyZMrJ69erAc26lbNq0SU6ePOl6WRLdmBXu4cOHS7Zs2bwqKVOmlPvvv1/ix48feDysBYIRN27c68Ldtm1b14q2wEcn7vPKlSubE+4+ffrI3//+d23/mDFjSubMmQPvlTAXCMdjjz0mjzzyiM72BZ0T1oK+L6r9LQs3BlszZMhgWrjxDsQsZ9B9EvaSMGFCvX4MvAcdD3uBbP/jH//Q36DjYS9od7Q/7oOg42Ev2E6A68f3YNDxsBf0ew888IBur8J3cdA5t1LwLsW+eHJ7MCvcb7/99nWBY/GroO0sgv07GN0tUaKEnDt3ztXa4MMPPwy8F1jsFQy2bNu2zd0Zdrh48aKUL19eZWPBggWu1gbo+5IlSxZ4P7CwsLCw/Held+/erpcl0Y1Z4e7Xr58uzfGp4IMDwoVRzqDjYS645hQpUmix2kFgCRD28DZt2jTUsQqCwIqUVKlSaftbvP+jCp5/lKBjYS7o+6Ke/ypVqsiePXvcnWEHZGvAUtrixYvrjK8l0PdhoBHtj/sf90PQfRL2gr6P12/zGwjF8jcgCq//r71+BKAbP36862VJdGNWuHfv3i1z5sxh8bDs2rXLtaItzpw5IytWrNDAGYjcbol9+/bpHuag+4HFVsHetfPnz7s7ww5Xr16VzZs3y/Lly80FzTt9+rRed9D9wMLCwsJy62X+/PmabpTcHswKNyGEEEIIIYQQEp1QuD0DqYGszW7eCPYxWk34jxkutD+u/9q1a67WFrh2LK21Cq7d6v0PcP2W+0C0veXrR+5ZXL9Vot4BVsF7D9dv9f0HcP24D6yC67ecgxrfwJcvX3b/190D2gQRz48dO6YrsFA4Afp7KNwegaWU2MM3btw4V2MLLKds1aqVpkaw+MLBNgikRPvss89MStfhw4elc+fOmiIKy+utgRdY9+7d5YMPPtC0htbAMnKkhenQoYNuMbAGPmgGDx6sOWi3b9/uam0xevRofQeuW7fO1dhiypQp0qxZM/3msQiWweL68WsRtDuuH/eBRfDc4/lHP2AR9Pvo//EeuNsGHbA0vWXLllKuXDlN2/baa6/JwIED3VECQiHcyMmbKVMmqV27tqsJJwjfjwi1uKktglQ4CJpTp04dV2MLDDggyEWFChVcjS0OHjyoqSyKFClicpYHgwwvvvii5MyZU44ePepq7YBBNgQNREo0i2nBQLVq1TQPKwZfLYKAkQj2Y1W43nvvPUmUKJGMHTvW1dgCwW6REgu/FkG7o/1xH1gEzz2ef/QDFkG/j/4f74G7jbNnz0r79u31GzUqAjpSl2FwZNasWTct+K638j0XGuHGR1jFihXl+PHjOhMSxjJq1CjtbBo1ahR4POwFo7oQboycQT6CzglzWbx4sXZmZcqU0RnOoHPCXNauXaspoSCdiFIddE6YCyQzX7588txzz2ngvKBzwlwwgl6sWDHNQ400UUHnhLlghUOlSpX0g2v27NmB54S91KtXTyP1YpVX0PGwF6zwSpw4sQwYMCDweNgL0kNCOPEbdDzsBe2O9sd9EHQ87AXPPZ5/9ANBx8Ne0O+j/8d7AO+DoHPuVPnnP/+pM/CtW7e+Ltz33XefPq9os5uVXLlyaUDcoH8TBUvow7KiNRTCjcjNSIgfO3ZsvRGxnCGMBR/bjz32mKRLly7weNhLgQIFJEaMGNrhIDVQ0DlhLpCNmDFjakqIMN/nNyslS5aUOHHiaAf+yiuvBJ4T5oKlWpjdiRcvnpQuXTrwnDAXrOzAgGOsWLE0NVbQOWEulStXlpQpU8oTTzwhhQsXDjwn7CVNmjTy+OOPy/PPPx94POwlY8aM+g2Aj9Sg42EvmDF79NFH9TfoeNgL2h3tj/sg6HjYC557PP/oB4KOh72g30f/j/cA3gdB59ypgln3hg0bSsGCBeUf//jHden+MyVv3ryB/yZKx44d5cCBA872/CYUwo00UXXr1pXs2bPrDFhYC/LvPfDAA/rBHXQ87AWDKg8++KAOrGDPftA5YS6pU6eWhx56SKUbWyiCzglzwez+I488oi9crGgJOifMBTO7+NjCBycG3YLOCXPBRyYG3B5++GH94Ao6J8wFfR4GG9AHYtAx6Jywl7hx4+o7ECudgo6HvSRIkECvHzNDQcfDXjC7i+vHb9DxsBe0O64f90HQ8bAXPPe4fvQDQcfDXtDvo//He+Bu+wbGIBgmBfGdeu+99waK9c3KH/VnEPmdO3c62/ObUAg3lhwgoNT69etl5cqVoS1dunTRGR4sqQ46HvaCgEnocLGkGktKg84Jcxk6dKh2ZhjlXLRoUeA5YS5YTgbpyp07t8ycOTPwnDAXxHDIkSOHvoS+/PLLwHPCXObNmycvvPCCDryMHDky8JwwF+x1wyoPDDz2798/8JywF6zswcdZjx49Ao+HvSB+CeK4YK9k0PGwl7feektlG79Bx8Ne0O5of9wHQcfDXvDc4/lHPxB0POwF/T76f7wH8D4IOudOF8SYuv/++wPFOqhg8KRPnz6B/xYKYhdhaXkYCIVwWwH7HDCz1alTJ1dji1WrVqlwNWnSxNXYAqN8WMVRo0YNV2ML7FuHcGFptcW0IAgsgqBhhQoV0v1bFnn11Vd1WeXevXtdjS0aNGggWbJk0T38FkGE3vTp08s333zjamyBDA1Y3TF58mRXY4uoQWf8WgTtjvbHfWARPPd4/tEPWAT9Pvp/vAfuNrDPGpMiCGobJdNRg2PILHKzgok0pBKzAIXbIyZNmqQvGwQlsMj8+fN1WW39+vVN5uFE0DAs28H+dYtRujHggL0+GN09ceKEq7XDkSNHdB8/Bh0sCieioGLvPgadLAonBplq1aql20mspoV6++23dYXDjBkzXI0t3n//fV1W+sUXX7gaW3zyySc6w4dfi6Dd0f64DyyC5x7PP/oBi6DfR/+P98DdNumwf/9+nQzCpCAGhVAQTd7it9rNoHB7BJaRQritpgXDDD9GNxGh0uIM53fffaejm5jl++WXX1ytHX744QfJkyePlChRwmQeakTpLlq0qAaO+fHHH12tHRAF9eWXX9Yo7d9//72rtQNy79esWVNX+WA5oUUwW4IPOWyvsEjnzp1VuJCxxCKYDYNw49ciaHe0P+4Di+C5x/OPfsAi6PfR/+M9gPfB3QS+SbHVE5HUsRIBJSx7r/8qKNweQeGmcFO4KdwUbgo3hZvCbREKN4Wbwn13Cjf5z1C4PYLCTeGmcFO4KdwUbgo3hdsiFG4KN4Wbwu0rFG6PoHBTuCncFG4KN4Wbwk3htgiFm8JN4aZw+wqF2yPGjBkj8ePHl0aNGrkaW3z99dca9RDJ8C0K9/LlyyVlypQaqfrcuXOu1g5btmzR/Nv58+fXAGLWOHDggKZEQ1qwHTt2uFo7IDI7IqBi0HH16tWu1g74wKpYsaKmxVm4cKGrtQUGW5GDGIPPFkHA1Dhx4sjgwYNdjS26desmsWPH1l+LoN3R/lYD5+K5x/OPfsAi6PfR/+M9QOH2Dwq3R0yZMkU/ttu1a+dqbLFgwQKd3WrcuLFJ4UaUckTpxuhmWPIS3gqQTKTEQqRqK2kkbuTQoUNStmxZjVS+Z88eV2uH06dPa4R+DLhs2LDB1doBH1hvvPGG5MyZU4PTWKRVq1a6ygd5+C3StWtXjVKMwXeLfPbZZzrDh1+LoN3R/rgPLILnHs8/+gGLoN9H/4/3AIXbPyjcHoGP7IkTJ5qc3QFYUvvVV19pagTk/LMGJBODLosWLZLLly+7WjtAuKZPn65bCyymRcMgCyKAYqUHUmRZAx8YSA04depUk6lGrly5oksKkR7S4goPsHLlSp3lQgoai2ArBb4BrEb/xSqnCRMm6K9F0O5of4tbagCeezz/6Acsgn4f/T/eA3gfEL+gcBNCCCGEEEIIIdEAhZsQQgghhBBCCIkGKNwesXnzZunTp48uK7XIrl27NDopllVbXFJ+8OBB6devn4wfP14uXbrkau2AJfUDBw7USK0Wo7SfOXNGhg8froFzTp486WrtgG0Eo0eP1v2bhw8fdrV2QNwKbKnp27ev7N2719XaAtsp8A7ctm2bq7EFgib17t3b7JJiBA7t1auX/loE7Y72txo0Ec89nn/0AxZBv4/+H+8Bi3GMfIfC/S+OHj0qq1at0k78fykrVqzQwEbRBfbuICVG8+bNXY0t5syZoykh6tSpY7KzwT2KgCmIUGlROPGyRcAQBA2zmhYMQeMQOA+DT9ZAWrAyZcpo0Jx169a5WjtgD3u1atU0NeI333zjam3RpEkTTYuEffwW6dixo6RIkUJGjBjhamwB2UqePLn+WgTtjvbHfWARPPd4/tEPWAT9Pvp/vAfCEDQNmUcQDBfvdgtQuP8FRouQbufZZ5/9PwVRwfGB9+8l6NysWbPK559/7v7Vv56xY8dKokSJpGnTpq7GFohQiZQI6GwsCjcGdJASCZGqLaYF27p1qz5nL774og6SWQNpwfLly6eR+i0GTcLLuXjx4pIuXTpZs2aNq7UDPrAqV66sqQERONEiiM6L1JAIHGSRd999V9MiDR061NXYokePHpoaFb8WQbuj/XEfWATPPZ5/9AMWQb+P/h/vgTAI95AhQ6RChQoyb948VxNuKNz/AjcxZk1ff/3135VatWrpSNo777zzuwLhrV279v85v3r16jJr1iz3r/71IDojhKtly5auxhaITo3RPeRgtCjc3333nQ72vPrqqyZnuH/44QfJkyePlChRwuwMd9GiReX555+XH3/80dXaAaPgL7/8sg44WFxSiw8spAREWiREqbXIW2+9paucpk2b5mps0blzZ53hw7Yai2BLGVb54dciaHe0P+4Di+C5x/OPfsAi6PfR/+M94LNwHz9+XMaNG6cTnTFixND/bAEK97+AvGF/4K+//qo38bVr17Qes4iYVcPH3Y0FKSmwnzIK7KfFfxf/RnSKIIWbwk3hpnBTuCncFG4Kt0Uo3BRuCrf/wo0Vetgad88990jChAnNxCSgcP8B+Khv1KiRlCxZ8nelbt26dyQPKIWbwk3hpnBTuCncFG4Kt0Uo3BRuCrf/wo192xkyZFDhTpIkiXz77bfuSLihcP8b+KiD2CIacocOHTRA1b8Ld/ny5aVdu3YyYMAAXQqB5RG3Awo3hZvCTeGmcFO4KdwUbotQuCncFG6/hRuxiFq0aCFJkyZV4caS8vr16+szDe/Cd15YCYVwQ76wxPv8+fPXl4PfKvjvQWLGjBmjQRmwzOGVV17R4Dz4uL+xbNq0SfdsI4BZnDhxNJAF/rvRnaqKwk3hpnBTuCncFG4KN4XbIhRuCjeF21/hhmchwwBmtR944AEV7vvuu099C881Ak+HOQNFKIQbyxMQtREzzv9tfuKzZ89qjuNs2bLpTYDUQ3i4bybwyIVdrlw5PRepmnr27CknTpxwR6MHCjeFm8JN4aZwU7gp3BRui1C4KdwUbr9nuFeuXCmtWrXSjENRM9wNGjSQTz75RAYPHizbt293Z4aPUAj34sWLtRPGUm/Mcv83QGBeeuklefDBB6VAgQL6b/4nkBcZH/+PPPKI5M+fP9pTFVG4KdwUbgo3hZvCTeGmcFuEwk3hpnD7v4cb3y+5cuVS4cZs99KlS92RcBMK4cZNmDZtWqlUqZJGC79Vrly5ojcApBkfc9hj8Gdu5suXL8v69euv58bdsGGD/lvRBYWbwk3hpnBTuCncFG4Kt0Uo3BRuCrf/wo1Z7Jw5c14X7j8zwRkGQiHciHD37LPP6r7q/0a4IdiIPI6GL1u27C39G9i3/dprr0mCBAmkWrVq8s0337gjfz0Ubgo3hZvCTeGmcFO4KdwWoXBTuCnc/gv3xo0bJXv27CrciJk1Z84cdyTcULj/Rf/+/bXhURAo7dixY+7IfwbB2qpXr379v9+9e3d35K9n7NixGqitadOmrsYWM2fO1H0fGNiwKNwYGMKACwaFkCPeGsiJj+f8xRdfjPbtG3cjBw4cuL6aBnksrXHq1CkpXry4pEuXToNZWgMfWJUrV5aUKVPKokWLXK0t3njjDf1AmzRpkquxBWLVYHAfgVot0qNHD4kfP77+WgTtjvbHfWARPPd4/tEPWAT9Pvp/vAco3P4RCuFevny5fohDxC5evOhq/zyffvrp74T7Vj7mMetyo3B37drVHfnrmThxoo7uNm/e3NXYAg8lRjfr1KljUrgRMwAB+pCqzuIM97Zt23QZEgIaWp3hLlSokOTNm1d27drlau2AvrZMmTK6ymPdunWu1g74wMI7Dqt8onMl1d1MkyZNdIYvzJFs/4iOHTtKihQpZMSIEa7GFohwnDx5cv21CNod7Y/7wCJ47vH8ox+wCPp99P94D1C4/SMUwr1582aNLo5l4f8NgwYN0tD0aHwsWbxV4cbNHyXcvXv3dkf+erZs2SIfffSRmZvz34Fk9O3bVzvd6E7Bdjdy8OBB+eyzz2TChAn/dTR+n0G+e0Sx/Pzzz00OOGA1zciRI3WW4+TJk67WDhcuXNBVPshGcfjwYVdrBwwyYoYH2TT27t3ram2BVU5YToztJRbBDBdkE7FjLIJVXrh+/FoE7Y7rt7rCBc89nn/0AxZBv4/+H+8BnyedKNyeglRcyJ2NoGmY/cCy01uNVP6/CveNM9zdunVzRwghhBBCCCGEgH8XbqRZtoDXwo0c2UOGDJHMmTPLo48+qnt7KlSoIKtXr3Zn/Dkg3Pfee+914b6V5aqnT5+mcBNCCCGEEELIH8AZbg+BcCNaYZTsojz++OMyffp0d8afA8uUo/77CEZwK8t1o6KUx4sXT/fWzp8/3x3569mzZ48uJ8ZeXotgSTX2sSNnn8Ul5Qjmh6VECxcu1JR01sBqEkQpxWgolhdbAyt3Zs2apf3b2bNnXa0dsGdt3rx5MnnyZF3ZZA2knMQePmSrOHLkiKu1BZYS4x24b98+V2MLxC4YP368yaCJANsHx40bp78WQbuj/S3GsAB47vH8W91SgH4f/T/eA9GZgji6uVG4EQQO9zPaFlsGb3XC1Ce8F+5WrVpdl2UUjJbgo/RW+OKLLyRhwoQ6y124cGHZtGnTnxIa7KHAvuoXXnhB95CvXbs2WkVoypQpGhyuXbt2rsYWCxYs0L9zo0aNTAZNQ2RmpMWqUaPGLW+bCAM7duyQggUL3nImgbBw6NAh3TaD1GAYfLMGVhMhJV7+/Pllw4YNrtYOGHBAdN4cOXLIsmXLXK0tkBITK9q+/vprV2OLDz/8UNMCYRudRRDD5JlnntFfi6Dd0f64DyyC5x7Pv9XUuOj30f/jPeBz0DS8v+EycDa4FybSINvwrzAHhPReuJEe4UbhfvLJJ295eQICEQwfPlw7shgxYkjJkiX/1AcNBBtL0LGcHel6ojtyMjpbLJuHcFoEnS0GVKpWrWpSuBGNH1HqS5UqZTItGAa38LEF4bI4w4e0YLlz59YPDgw+WANpwYoUKaKp8cI8Cn4z8IGFVVRIjYhVLhapV6+epkXCLI9FWrduLXHjxtWPU4tgy16cOHHMbt1Du6P9cR9YBM89nn/0AxZBv4/+H+8Bn4X7+++/1/SeUd4G+a5du7YGhcV3XlihcN/AJ598otKNfwczKRCcm4Ebv1KlSnouwvRjxBFRlKMTdDb42LQ6ujd37lz9W6OztSjc3333naZEwr1pMUo3IpRihr9EiRJm04Jhdvv555+XH3/80dXaAVsKMMCJPOR4YVsDH1g1a9bUd9SSJUtcrS2whQypIbG1xCKdO3fWtEijRo1yNbZAhGoMOuPXImh3tD/uA4vgucfzj37AIuj30f/jPeCzcGP5ONwNMbfwTkeqVwup/ijcN4B9kZjpjh07ts5a48Mee4WwfDeqYGZx+/btGigNI22PPfaYLm/Cx2B076mgcFO4KdwUbgo3hZvCTeG2CIWbwk3h9l+48f2O1KbICIUUn/v379cVbGGHwv1v4CZA5HOILf49fOBhv0RUgWhXqVJF94736tVLhg0bdtuWt1K4KdwUbgo3hZvCTeGmcFuEwk3hpnD7L9xW8Vq4ATqeG4U7RYoU8u2337qj/z1YXo7c3jf+2yjYQw3hRpS92w2Fm8JN4aZwU7gp3BRuCrdFKNwUbgo3hdtXOMN9EzDTjQ38WDZ+47+PDz5E2LsTwkfhpnBTuCncFG4KN4Wbwm0RCjeFm8JN4fYVb4UbaXGwyR4f4DcKMaKMQ0i++uqr/zlX75kzZ3R5eZcuXeTNN9/Ufd1ISzVo0CD9+LvdULgp3BRuCjeFm8JN4aZwW4TCTeGmcFO4fcVb4V68eLEuH79Rtm8sr7322l8qxUgd9vrrr2tKigcffFDTUkCAEML+fxX7PwuFm8JN4aZwU7gp3BRuCrdFKNwUbgo3hdtXvBXu+fPn/5/l3jcWhJv/q6PeITp5gwYN9N9HPmjIT6FChWTevHnujOiFwk3hpnBTuCncFG4KN4XbIhRuCjeFm8LtK94KNx68ePHiqYBUrlxZkiZNqh9i+M+xYsXSD9Njx465s/868KHXrFkzTdL+zDPPqHzjA7ht27bSvn17WbZsmTvzr4fCTeGmcFO4KdwUbgo3hdsiFG4KN4Wbwu0r3go35Ktw4cLSr18/Wbp0qeTLl08aN24s69ev15sRQnzixAl39l/L5cuX5eLFizJhwgTJkCGDLm1PlSqVRjVHHu/oYvz48ZIsWTJ5++23XY0tZs2aJSlTppQaNWqYFO6VK1dKunTp5JVXXjEp3Fu3btUYClhVgvyN1jh48KC88MILkjNnTtm1a5ertQNWLJUsWVIHOteuXetq7YAPrKpVq+q7BluqLNKwYUMNjDp58mRXY4t27dpJkiRJNB2pRZCKFasL8WsRtDvaH/eBRfDc4/lHP2AR9Pvo//EeoHD7h7fCjQ9uzCYjaTpSdOXKlUsDm0GEN23apB9k0X1DIqjawoULZdKkSTJu3DgVYiw7jy7Gjh0riRIlkiZNmrgaW8ycOVMHHLCX3qJwr1ixQlc4lC1bVs6dO+dq7QDhfvbZZ+XFF180KdwHDhzQgUUMOuzcudPV2gHCXaxYMR10WrNmjau1A95nWMGFAd5Fixa5Wlu88cYbKlx451oEWVmwlW7o0KGuxhY9evTQ1Kz4tQjaHe2P+8AieO7x/KMfsAj6ffT/eA9QuP3DW+G+EeTdzpQpkwZKC/NNiCXFLVq0ULm3CAZSWrVqpaO8V65ccbV22L17t45sf/bZZzqwZA0MrmEpHWY3MNhlDQhn9+7d5YMPPjC5pP78+fO6lLRDhw6yb98+V2sHDDIOHjxY2rRpE60Du3czX3zxhb4D161b52psgRk+bGnDN49FkPIV1/9XpH71EbQ7rt/qCg8893j+0Q9YBP0++n+8ByxOOvlOaIQbM18Q7tsVMfxOgAfs119/lUuXLrkaW0Cycf1WR/auXr2q9zeuHznorYH2P3v2rM7u429hDVwzrh1/A4sDTrjnMdCEZ8Bi+wM8+7h+i+0P8O7DO8Dqx6b168d2Plw/fi1i/RuQ38BXrn8DEv8IlXBjqTEeRkIIIYQQQggh5E5D4fYIzG4tX75c9u/f72psgdktBA7bvHmzyRleLKPGPm7ELLA6w0Vss2XLFn0GLG4pwKw++j68A/7qlJe+sHfvXm1/bC+wyKFDh7T9T58+7WpsgcwziN0THRlofADtjvbHfWARPPd4/tEPWAQrO1atWmUyhksYMCvcEBbcvD6V6dOna8CoLl26BB4Pe0HACESoxh4Wi8K5YcMGTYmFoHnWPjghG0H3BIudgqwTSAlYunRpFW9rYBkl9i8icBzieVgCA6xYTtqxY0cpUKCAzJ49O/AeCXvp06ePpgVEhpSg42EvQ4YMkfz58+tv0PGwF7Q72h/3QdDxsBc893j+0Q8EHQ97wWALUoNiHz++AYPOudVidXvWncCscM+fP1/eeecdrwrSoCHvN9KPBR0Pe0FKoL/97W/60W2xk0Bnmzx5cpVua1HKkX+yefPmgfcFi43SoEEDiRcvnubix+CTNbDCp3z58poWaMGCBa7WBljVhWCJSImDdyAGHYLukbAXBIfF9SM9YNDxsJccOXLo9eM36HjYC9od14/7IOh42Auee1w/+oGg42Ev5cqVk3vvvVeSJk2qEy9B59xKweSVtcHbO4lZ4W7btq0+uCz+Fas5KNExZs6cWVNCWMvD3bNnz8B7gcVewUfnjh073J1hBwTKqVGjhuYhxwCUJbCVCOnggu4HFhYWFpb/riDrDbk9mBXu9u3bB958LHd/QdtZBMKdJUsWefXVV80JN/KuBt0LLPYKlhRa3MMG4a5Zs6ZkzJjRnHBj32bU7DYLCwsLy19TBgwY4HpZEt2YFe5vvvlGZ0p9Kq+88orEihVLcuXKFXg8rAXLXrJnz369g0CdRSwL90cffaRLqdD+EA7sYfr3+yTsBUvIUqZMKcmSJZM333wz8JywFvR9Dz30kLa/5Rluq8KNvi9qOXXMmDH1XR90n4S9YP8urh9xDIKOh70UKVJErx+/QcfDXtDuuH7cB0HHw14qVqwosWPH1u/BoONhL+j3sK0KfWHr1q0Dz7mV8t5772luc3J7MCvcPvLll19K6tSppWXLlq7GBggW9NZbb1G4jQt3VPtXq1ZN/vnPf7ojdvjpp580YAo+tn788UdXa4OvvvpKBxvR/rh+Crc94cZSerT/008/rQPmFuncubNe/6hRo1yNLT7++GN56qmn9NciaHe0P+4Di0ybNk3SpEmj34MWQb+P/h/vAebi9g8Kt0fMnDlTA6ZZXFLdqlWr68JF4bYt3HXq1DEZpf7s2bMaMK9gwYLy888/u1obzJo1S2c20P4UbtvCjUHnNWvWuCO26N69u14/Bt8tMmjQIN1agF+LRE264D6wCIJFIpYDvgctsnbtWo3jU79+fVdDfILC7RGc4aZwU7g5w80Zbgo3Z7g5w20RznBzhpsz3Jzh9hUKt0dQuCncFG4KN4Wbwk3hpnBbhMJN4aZwU7h9hcLtERRuCjeFm8JN4aZwU7gp3BahcFO4KdwUbl+hcHsEhZvCTeGmcFO4KdwUbgq3RSjcFG4KN4XbVyjcHkHhpnBTuCncFG4KN4Wbwm0RCjeFm8JN4fYVCrdHULgp3BRuCjeFm8JN4aZwW4TCTeGmcFO4fYXC7RFjx46VhAkTSpMmTVyNDSjcEVasWKEpUcqUKSPnzp1ztTagcIscOHBA8ubNK1mzZpWdO3e6WhtQuCPCXalSJUmePLksXLjQ1dqAwh2hTZs2Ej9+fBkyZIirsQXSYcWLF89sWiy0O9of94FF8B5IlCiR2bRY6PfR/+M9QOH2Dwq3R3CGmzPcnOHmDDdnuDnDzRluznBbhDPcnOHmDDdnuH2Fwu0RP/zwgwwcOFAWLVrkamxA4Y5w+PBhGTZsmEydOlX/JpagcIuuahg3bpx88cUX5q6fwi1y5coV+frrr3WWC6sdLEHhjoBvnQEDBsimTZtcjS1Wr14t/fv311+LoN3R/rgPLIKVXfgGnj9/vquxBfp99P94D+B9QPyCwk3ueijchMJtGwq3bSjchBBCfIbCTe56KNyEwm0bCrdtKNyEEEJ8hsLtEbt27ZLPP/9cli1b5mpsQOGOcPToUV1SPGfOHLl8+bKrtQGFW3TfPrYTQD5Pnz7tam1A4Y4sKcdSyjFjxsihQ4dcrQ0o3BHwd8A+Xmwvs8j69ev1+vFrEbQ7rh/3gUX27Nmj38BLly51NbZAv4/+H+8BLin3Dwq3R0yaNEkyZMhgLkIlhTsC9q3lyJFD73MGTbMn3HjZlixZUgoVKiS7d+92tTagcEeCptWtW1ej1Fvbw0nhjvDBBx9IunTpNI6DRfr16ydp06bVX4ug3dH+uA8sMmPGDO0Hmjdv7mpsgX4f/T/eAwya5h8Ubo/AyFaCBAmkcePGrsYGFO4Iy5cv1witpUuXZlowg8KNgCl58uTRSPVMC2ZTuCtWrChPPvkk04IZFW4MtseNG9d0WrA4ceKYTguG9recFgypcevVq+dqbIF+H/0/3gMUbv+gcHsE04LZFm58dDItmF3hZlowCjfTgtkWbqYFY1owtD/TgjEtGIXbPyjcHkHhpnBTuCncFG4KN4Wbwm0RCjeFm8JN4fYVCrdHULgp3BRuCjeFm8JN4aZwW4TCTeGmcFO4fYXC7REUbgo3hZvCTeGmcFO4KdwWoXBTuCncFG5foXB7BIWbwk3hpnBTuCncFG4Kt0Uo3BRuCjeF21co3B5B4aZwU7gp3BRuCjeFm8JtEQo3hZvCTeH2FQq3R1C4KdwUbgo3hZvCTeGmcFuEwk3hpnBTuH2Fwu0RFG4KN4Wbwk3hpnBTuCncFqFwU7gp3BRuX6FwewSFm8JN4aZwU7gp3BRuCrdFKNwUbgo3hdtXKNweMW7cOEmaNKm5zobCHWHlypWSNm1aefnllyncBoX74MGDKps5cuSQXbt2uVobULgjwl2lShX94F60aJGrtQGFOwLefYkTJ5Zhw4a5Glv07NlTEiVKpL8WQbuj/a1+A02ePFmSJUsmb775pquxBfp99H94D1C4/YPC7REQ7iRJklC4jb5sVqxYoaO75cqVk3PnzrlaG1C4I8KdP39+yZ49u+zcudPV2oDC/f8LN2b4KNw2hbtt27YqnJaFO2HChKaFG+2P+8AikyZN0kmnBg0auBpboN9H/0/h9hMKt0esW7dO2rdvr52OJSjcEfbu3Svvv/++DBkyxFxnS+EWvWYspcTH5rFjx1ytDSjcIr/99puMHDlSl5NaG3ChcEeYMWOGvv+w2skiCxYsUNnEr0XQ7mh/3AcW2bBhg34DT5gwwdXYAv0++n+8B/A+IH5B4faIa9euyZUrV+Tq1auuxgYU7ghR7Y9iDQp3hKj2x71gCQp3BKvtT+GOgHc/2t/aN0AUuG6IhuXrt9z+Vr+Bo7D8DRgGKNzkrofCTSjctqFw24bCTQghxGco3B5x6NAhmT9/vmzZssXV2IDCHeHUqVO6h2fNmjXmlhNRuEUuXLggy5cv1/7u/PnzrtYGFO7I7Ba2FS1cuFBOnDjham1A4Y6wfft2mTdvnhw4cMDV2ALZGXD91rI0RIF2x/XjPrDIkSNH9Bt406ZNrsYW6PfR/+M9YHWW32co3B6BfTt58+bVfbyWoHBH+P7776VIkSIaMMSacFG4Ix8bSAmHoHnYz28JCvf/3w8WKFDA3B5eCneE3r17S+7cuWXixImuxhaIX5IrVy79tQjaHe2P+8Aic+fOlXz58kmHDh1cjS3Q76P/x3sA7wPiFxRujxg9erTEjRtXGjZs6GpsQOGOgNnNFClSSMmSJRml3KBwY3YjZ86c2tdZE04Kt8jFixelfPnymqnCWtAoCneEVq1aSezYsWXQoEGuxhZdu3aVmDFj6q9F0O5of9wHFvnyyy8lXrx4UrduXVdjC/T76P/xHsD7gPgFhdsj0NmkSpVKWrRo4WpsQOGOgI/OzJkzS+XKlZmH26Bw//TTT7rCAanBrC2ppHBH0oLVqFFDxXPJkiWu1gYU7gidOnXStECjRo1yNbbAeyBlypT6axG0O9of94FFpk2bJqlTp5amTZu6Glug30c/iPcA04L5B4XbIyDc6GxatmzpamxA4Y6Aj84sWbLosmIKt03hLlq0qAonhdumcNesWVMyZsxI4TYq3EgJhOu3KtxIiwjhxK9F0O5of9wHFoFwp0mTRr8HLYJ+H/0/3gMUbv+gcHsEhZvCTeGmcFO4KdwUbgq3RSjcFG4KN4XbVyjcHkHhpnBTuCncFG4KN4Wbwm0RCjeFm8JN4fYVCrdHULgp3BRuCjeFm8JN4aZwW4TCTeGmcFO4fYXC7REUbgo3hZvCTeGmcFO4KdwWoXBTuCncFG5foXB7BIWbwk3hpnBTuCncFG4Kt0Uo3BRuCjeF21co3B5B4aZwU7gp3BRuCjeFm8JtEQo3hZvCTeH2FQq3R1C4KdwUbgo3hZvCTeGmcFuEwk3hpnBTuH2Fwu0REyZMkOTJk8s777zjamxA4Y6watUq/eisUKEChdugcB88eFAKFCgguXPnll27drlaG1C4I8KNd1zatGll8eLFrtYGFO4IHTp0kGTJksmIESNcjS169+4tSZMm1V+LoN3R/rgPLDJlyhRJkSKFNGrUyNXYAv0++n+8Byjc/kHh9ogxY8ZIvHjxzHU2FO4Iy5cvl5QpU0qpUqXk3LlzrtYGFG6RAwcOSK5cuSRz5szmhJPCLXLx4kUdbINwLFiwwNXagMIdoXXr1hInThwZPHiwq7FFt27dJHbs2PprEbQ72h/3gUWwyjN+/PhSt25dV2ML9Pvo//EewPuA+AWF2yNwnbVr15ahQ4e6GhtQuCNs375dGjZsKF27dpULFy64WhtQuEVOnDgh7777rjRv3lwOHz7sam1A4Ra5fPmyzuy98cYbsmnTJldrAwp3hNGjR0utWrVk/vz5rsYWmOHEclr8WgTtjvbHfWCRlStXSp06dWTgwIGuxhbo99H/4z2A9wHxCwq3R+Dajh49KqdPn3Y1NqBwR8Df4eeff5aTJ0/KtWvXXK0NKNwiV65ckePHj8uxY8fkt99+c7U2oHCLPvOnTp3Sd4C15YQU7ghnz56VI0eOyPnz512NLbCyC9dvbYVXFGh3XD/uA4tgosHiN3AU6Pdx/XgPWPsGDAMUbnLXQ+EmFG7bULhtQ+EmhBDiMxRuj4BkbNmyRaMVW4LCHQGj2z/88IPs2bNHrl696mptQOGOPAcIlgbZtDbDSeGOzHDv27dPtm3bZm6Gj8IdAVtJ8A2AVU4WwQovXD9+LYJ2x/Vb21IUBWa2t27dqgFELYJ+H/0/3gOc4fYPCrdHYP9O2bJlzaXEoHBH2Lx5s6YEa9OmjbmVHBTuyMfmm2++qXvYrH1wULgj/WDHjh2lYsWKsm7dOldrAwp3hEGDBknp0qVlxowZrsYWCByL68evRdDuuH7cBxbBc1+uXDnp2bOnq7EF+n30/3gP4H1A/ILC7REIlIEIlQicZQkKd4Rly5ZpWrgSJUowSrlB4UaU8pw5c0qmTJnMCSeFOxKlvHz58pIkSRJGKTcq3C1bttTnwKpwIWBozJgx9dciaHe0P+4Di0ycOFHixo2rg84WQb+P/h/vAUYp9w8Kt0egs3nqqac0SrElKNwRkIcbslWpUiXm4TYo3NhKUqhQIcmbN6/8+OOPrtYGFO5IwJzq1atL+vTpzQknhTsCZraQh3jkyJGuxhZ9+vTRQWf8WgTtjvbHfWCRqVOn6vPfpEkTV2ML9Hvo//EeYB5u/6BwewRyEKZOndrc6CaFOwI+OrNkyaLLyincNoW7aNGiKpwUbpvCjZRIGTNmlCVLlrhaG1C4I3Tu3Fmvf9SoUa7GFthOh0kHa9vqokC7o/1xH1hk2rRpkiZNGv0etAj6ffT/eA9QuP2Dwu0RFG4KN4Wbwk3hpnBTuCncFqFwU7gp3BRuX6FwewSFm8JN4aZwU7gp3BRuCrdFKNwUbgo3hdtXKNweQeGmcFO4KdwUbgo3hZvCbREKN4Wbwk3h9hUKt0dQuCncFG4KN4Wbwk3hpnBbhMJN4aZwU7h9hcLtERRuCjeFm8JN4aZwU7gp3BahcFO4KdwUbl+hcHsEhZvCTeGmcFO4KdwUbgq3RSjcFG4KN4XbVyjcHkHhpnBTuCncFG4KN4Wbwm0RCjeFm8JN4fYVCrdHULgjwtWhQwd3xBZr1qyRrFmzSpUqVeTChQuu1gZ9+/a93v4UbtvC/cILL5i7fvDbb79JrVq1JFOmTPrOswT6Pnxoov0p3BRuCjeF2yIUbr+hcHsEhTsiXB9++KE7YoudO3dK9uzZpUaNGq7GDkOGDLne/hRu28JdqFAhOX78uDtiiwYNGugql40bN7oaG6Dvy5w5s7Y/hZvCTeGmcFuEwu03FG6PoHBHhKtevXqyefNmc2Xs2LGSNm1aKV68uC6xDDonrAX3fFT7U7htCnfs2LG1/bNlyyYzZswIvE/CXNatWydly5aVVKlSyYgRIwLPCWtB3wfRQPvj+incFG6LULgp3BRuf6Fwe8TEiRP1Y6NFixauxgYQ7qZNm14XrkSJEknOnDnNlQwZMshDDz2kM33PPfdc4DlhLcmSJbve/njOrQp3kSJFJH/+/OaEG4ONceLE0fZ/9NFHdVl10H0S5oLVLfgbPPjgg5IuXbrAc8Ja0PfhutH+loW7U6dOKpwjR450NbZALI+UKVPqr0XQ7mh/3AcWmTp1qk464XvQIhBuxLLAKkcKt39QuD1i9OjR+sHVsGFDV2MDCHedOnWuCxeL7VKuXDk5deqUuzvscODAAZUPyKa1oGFjxoyRf/zjH4H3A4utEi9ePJk/f767M2zRqlUrHXAdNGiQq7FF165dJWbMmPprEbQ72h/3gUUw8IrnH9+DFlmwYIEkSZJEypcvLxcvXnS1xBco3B4xc+ZMXU7apUsXV2ODy5cv64hu0qRJtWCGO0GCBOZKwoQJtbNNnDhx4PEwF7R5VPtjOdmZM2fc3WGHI0eOyGuvvSYVKlSQffv2uVoboO/D3mW0P+5/PAtB90nYC64dfYC164/q+9D+CJq3cuVKd2fYAjO7WOGCLRYWGTZsmOTLl09/LYJ2R/tbneGfN2+ePv9WZ/hXrVqlq9yaNWumE1HELyjcHoEPbiyl++GHH1yNDa5evSpbt26Vr7/+moVFNmzYoIMw1sCINvbuQzbOnz/vam2Avg+zmkH3A4utgnfgyZMn3Z1hCwSPW7x4sW4vscjevXv1+vFrEbQ7rh/3gUV+/vlnff7xPWgR9HtLly7VoJn4LiZ+QeEmhBBCCCGEEEKiAQq3R1y5ckUDJVic3YsCy2gsj+yh7XEfWAXXj3vg2rVrrsYOuGZcu9XrB8hFbbn/w7NveSkh+n68A632gbj/ef3/T38tEvUNaP36rb4Dovq/u/H60TanT5/WWXj8Ytsf95n/Hgq3R6xZs0Zat24tEyZMcDW22LJli7z77ruaEseidO/Zs0c6duwoAwYM0E7XGocPH5YPPvhA+vTpI2fPnnW1dkBk9l69emnAoGPHjrlaO2AZfb9+/TQlzv79+12tHfCRPXToUGnXrp25oHlRID0Y3oHr1693NbZAlGYEzFq2bJmrsQX28CJFJH4tgnZH++M+sAieezz/6Acsgn4f/T/eA3fboAu2O7Rp00ZjzFSvXl0jqQ8ZMsQdJSAUwo09DYjcW7t2bVcTTpCDEEFjrOXhjgIpEVKkSGE2QiXy0SIdUMWKFV2NLQ4ePKg5mBE05MKFC67WDhgxLlCggOTKlUuOHj3qau2AEfTSpUtrWpTt27e7WlvgQwZpsVavXu1qbIF0QEgROGfOHFdji/fee08D51kVDgy4IYAefi2Cdkf74z6wCJ57PP9W04Kh30f/j/fA3Qa+T9q2batp26IySiB97fjx42Xu3Lk3LRhEsjITHhrhxkdYpUqVNF0QGi+M5fPPP9dIrY0bNw48HvaCUV0IN1Yy/PLLL4HnhLkgWEjatGmlbNmycuLEicBzwly+//57jVQN6cQMZ9A5YS7IvY0ItcjHjMGXoHPCXBA4rXjx4pqTefny5YHnhLngg6Zy5cry9NNP64dn0DlhL/Xr19dBZ3zEBR0Pe8HsHjI2DBw4MPB42AtW90C48Rt0POwF7Y72x30QdDzsBc89nn/0A0HHw17Q76P/x3sgasn23VLwvwcBnbECI0q477vvPm0vfLffrOTNm1cDogb9myhYzRmWFa2hEO4VK1bIU089pTmqq1SpoqM/YSxICfb444/rB2fQ8bCXwoULS4wYMXSED9IddE6Yy0svvaQ5OJMnTx7q+/xmBQMNcePG1RF+zPIHnRPmgtyb+NiKHz++5iIPOifMBR8ZmN2IHTu2lCxZMvCcMBekhMN7DnmIixUrFnhO2AtW+OAdiEG3oONhL9g699hjj+lHatDxsBcMNuL68Rt0POwF7Y7rx30QdDzsBc89nn/0A0HHw17Q76P/x3sA74Ogc+5UqVWrlq48wHf6P/7xj+vS/WcKJhKC/k0UbCE7cOCAsz2/CYVwI0UCGhvLTbG0PKzlySeflAceeEClI+h42AtGwx588EGVzowZMwaeE+aCkc2HHnpInnjiCV3REXROmEuaNGnk4Ycf1g+O9OnTB54T5oKPDFz7I488oisdgs4Jc8FAIwbc8Axg0C3onDAX9Hn42EIfiA+uoHPCXjCojncgBh2Djoe9YLDt/vvv11mjoONhLxhwxPXjN+h42AvaHdeP+yDoeNgLnns8/+gHgo6HvaDfR/+P98Dd9g2cOXNmyZMnj76b77333kCxvln5o/4MAwthiVkSCuHGfk40CHLUYnk59vqGsSDZP2b3MNMTdDzspWfPnjrDhdmtRYsWBZ4T5oJgaehwMcqLpUVB54S5YEsFRDtHjhy6vSDonDCXr776SgcV8aLFXr6gc8JckIM5X758+kJHMJagc8JcFixYoDMc+Ojs27dv4DlhL6+88opuq+rSpUvg8bAXBCLCkmoEJwo6HvbSqFEjSZAggf4GHQ97Qbuj/XEfBB0Pe8Fzj+cf/UDQ8bAX9Pvo//EewPsg6Jw7VeBe2I/dokULHRQKEuugggm07t27B/6bKAiUhy2kYSAUwm2F6dOn68hm8+bNXY0t8ECjs8VqBots3bpVZ7lffvllV2OLQ4cO6YgnBhwspkbCSwfCCek+fvy4q7UFtlVgdn/Xrl2uxhYY7cdKp7Vr17oaWyB+CYQLwXYsguWVWOFmOWgaZjctB01D++M+sAieezz/6Acsgn4f/T/eA3cbSFX65Zdf6js6SqYxONSwYUONOXCzgom0n3/+2f0r4YbC7RHobBChGTeoRbBXHw9z+/btXY0tkBYN+5jfeecdk2nB9u3bp4ER69atq3kerQHJxmBT1apVNQWHNZAWDDNbGHCyGKUcgWMww4UVPuvWrXO1tvjwww+laNGisnjxYldji88++0wKFSqkGUssglVOBQsW1F+LoN3R/rgPLILnHs8/+gGLoN9H/4/3wN0WSAz7rLHnGlv/MDGEgvc1Upjif+sfFStQuD0CN+7KlSs1WrFFkFB/1apV+rGN0TRrIPc00kJAvJEiyRoQLozwbtiwweQMNwZZsLwKL12LadGQd3TTpk2yZs0aOXfunKu1Az5Mtm3bplunkJPdIojXgneg1RUee/fu1YFnROy3CFJD4vrxaxG0O64f94FF8Nzj+Uc/YBH0++j/8R6420QV72QsAcfWLyx3X7hwodn0nTeDwk0IIYQQQgghhEQDFG5CCCGEEEIIISQaoHATQgghhBBCCCHRAIWbEEIIIYQQQgiJBijchBBCCCGEEEJINEDhJoQQQgghhBBCogEKNyGEEEIIIYQQEg1QuAkhhBBCCCGEkGiAwk0IIYQQQgghhEQDFG5CCCGEEEIIIbeFf/7zn7Jr1y45ffq0qwk3FG5CCCGEEEIIIbeF4cOHS+XKlWX+/PmuJtxQuAkhhBBCCCGERCsnTpyQiRMnSt68eSVGjBgybtw4dyTcULgJIYQQQgghhEQrO3fulPz588vf/vY3SZAggSxYsMAdCTcUbkIIIYQQQggh0QqEO3369HLPPfdIkiRJZNmyZe5IuKFwE0IIIYQQQgiJNlatWiVt2rSRZMmSqXA/8cQT8uabb8qnn34qQ4cOlR07drgzwweFmxBCCCGEEEJItHDt2jXp06ePzmo/8MADKtz33XefJEyYUJ566inJmjWrTJ061Z0dPijchBBCCCGEEEKijeXLl0vz5s0ladKkKtwImlavXj0V8f79+8u2bdvcmeGDwk0IIYQQQgghJFpB7u1cuXJd38O9ZMkSdyTcULgJIYQQQgghhEQr2KedM2fO68K9ePFidyTcULgJIYQQQgghhEQrGzdulOzZs6twJ06cWObMmeOOhBsKNyGEEEIIIYSQaIXCTQghhBBCCCGERAMUbkIIIYQQQgghJBqgcBNCCCGEEEIIIdHAvwv37Nmz3ZFwQ+EmhBBCCCGEEBKtcIabEEIIIYQQQgiJBm4U7pQpU8ratWtl//79Mnz4cP3PYYXCTQghhBBCCCEkWtmwYYM8++yzKtyJEiWSr776SoYOHSqFCxeWESNGuLPCB4WbEEIIIYQQQki08v3330vatGlVuFGyZs0qtWvXliFDhujsd1ihcBNCCCGEEEIIiVb27t0rLVq0kDJlykipUqWkYMGC0rNnT3c0vFC4CSGEEEIIIYREK5cvX5bjx4/LoUOH5KeffpI9e/bIiRMn3NHwQuEmhBBCCCGEEEKiAQo3IYQQQgghhBASDVC4CSGEEEIIIYSQaIDCTQghhBBCCCGERAMUbkIIIYQQQgghJBqgcBNCCCGEEEIIIdEAhZsQQgghhBBCCIkGKNyEEEIIIYQQQkg0QOEmhBBCCCGEEEKiAQo3IYQQQgghhBASDVC4CSGEEEIIIYSQaIDCTQghhBBCCCGERAMUbkIIIYQQQgghJBqgcHvLNbl29YpcvXJFrvxBuXr1X+e5/wbxg2vXrt6kXf9VH22NifvpasD/z4CCe4o3FSGEEPI/8ue+5W5a/vXejr7vAkLIXwWF21OunPlJDszvK+O6t5SWLYNLqza9ZdjcjbL5V5H/5/575G4Gb80TcnTrbJn0QQd5/3ft2VU+6D1Lvtl/Ss5ETv4L+dcNcmadrJo6QLr+7v9nQOnyqfSYvVvW/uz+q4QQQgj5r7h8fJf8OKObjOgS8L79E+XDz+fLrD0ip35z/yAh5K6Ewu0plw6skuUtU0qZ2PfIPffcrCSRPM2/kPEnRM66/x65m4Fwb5cNE5vKaw/eI/f/ri1jyEOJm0jnpT/KgcjJfyEnRQ4Mkb41M8kTv/v/GVAeTSdxms6XQZvcf5UQQggh/xW//jBL5r4RU154NOB9+yfK40VaSqMFIrsuuH+QEHIXIvL/AVmlxxu1xicyAAAAAElFTkSuQmCC;" vertex="1" parent="1">
          <mxGeometry x="30" y="235" width="493" height="285.42" as="geometry" />
        </mxCell>
        <mxCell id="g9L_jU2QSdB-Epxfe-pE-2" value="" style="endArrow=none;html=1;rounded=0;" edge="1" parent="1">
          <mxGeometry width="50" height="50" relative="1" as="geometry">
            <mxPoint x="50" y="110" as="sourcePoint" />
            <mxPoint x="70" y="110" as="targetPoint" />
          </mxGeometry>
        </mxCell>
        <mxCell id="g9L_jU2QSdB-Epxfe-pE-3" value="" style="endArrow=none;html=1;rounded=0;" edge="1" parent="1">
          <mxGeometry width="50" height="50" relative="1" as="geometry">
            <mxPoint x="110" y="110" as="sourcePoint" />
            <mxPoint x="110" y="90" as="targetPoint" />
          </mxGeometry>
        </mxCell>
        <mxCell id="g9L_jU2QSdB-Epxfe-pE-4" value="" style="endArrow=none;html=1;rounded=0;" edge="1" parent="1">
          <mxGeometry width="50" height="50" relative="1" as="geometry">
            <mxPoint x="110" y="90" as="sourcePoint" />
            <mxPoint x="130" y="90" as="targetPoint" />
          </mxGeometry>
        </mxCell>
        <mxCell id="g9L_jU2QSdB-Epxfe-pE-5" value="" style="endArrow=none;html=1;rounded=0;" edge="1" parent="1">
          <mxGeometry width="50" height="50" relative="1" as="geometry">
            <mxPoint x="130" y="110" as="sourcePoint" />
            <mxPoint x="130" y="90" as="targetPoint" />
          </mxGeometry>
        </mxCell>
        <mxCell id="g9L_jU2QSdB-Epxfe-pE-6" value="" style="endArrow=none;html=1;rounded=0;" edge="1" parent="1">
          <mxGeometry width="50" height="50" relative="1" as="geometry">
            <mxPoint x="90" y="110" as="sourcePoint" />
            <mxPoint x="110" y="110" as="targetPoint" />
          </mxGeometry>
        </mxCell>
        <mxCell id="g9L_jU2QSdB-Epxfe-pE-7" value="" style="endArrow=none;html=1;rounded=0;" edge="1" parent="1">
          <mxGeometry width="50" height="50" relative="1" as="geometry">
            <mxPoint x="150" y="110" as="sourcePoint" />
            <mxPoint x="150" y="90" as="targetPoint" />
          </mxGeometry>
        </mxCell>
        <mxCell id="g9L_jU2QSdB-Epxfe-pE-8" value="" style="endArrow=none;html=1;rounded=0;" edge="1" parent="1">
          <mxGeometry width="50" height="50" relative="1" as="geometry">
            <mxPoint x="150" y="90" as="sourcePoint" />
            <mxPoint x="170" y="90" as="targetPoint" />
          </mxGeometry>
        </mxCell>
        <mxCell id="g9L_jU2QSdB-Epxfe-pE-9" value="" style="endArrow=none;html=1;rounded=0;" edge="1" parent="1">
          <mxGeometry width="50" height="50" relative="1" as="geometry">
            <mxPoint x="170" y="110" as="sourcePoint" />
            <mxPoint x="170" y="90" as="targetPoint" />
          </mxGeometry>
        </mxCell>
        <mxCell id="g9L_jU2QSdB-Epxfe-pE-10" value="" style="endArrow=none;html=1;rounded=0;" edge="1" parent="1">
          <mxGeometry width="50" height="50" relative="1" as="geometry">
            <mxPoint x="130" y="110" as="sourcePoint" />
            <mxPoint x="150" y="110" as="targetPoint" />
          </mxGeometry>
        </mxCell>
        <mxCell id="g9L_jU2QSdB-Epxfe-pE-11" value="" style="endArrow=none;html=1;rounded=0;" edge="1" parent="1">
          <mxGeometry width="50" height="50" relative="1" as="geometry">
            <mxPoint x="190" y="110" as="sourcePoint" />
            <mxPoint x="190" y="90" as="targetPoint" />
          </mxGeometry>
        </mxCell>
        <mxCell id="g9L_jU2QSdB-Epxfe-pE-12" value="" style="endArrow=none;html=1;rounded=0;" edge="1" parent="1">
          <mxGeometry width="50" height="50" relative="1" as="geometry">
            <mxPoint x="190" y="90" as="sourcePoint" />
            <mxPoint x="210" y="90" as="targetPoint" />
          </mxGeometry>
        </mxCell>
        <mxCell id="g9L_jU2QSdB-Epxfe-pE-13" value="" style="endArrow=none;html=1;rounded=0;" edge="1" parent="1">
          <mxGeometry width="50" height="50" relative="1" as="geometry">
            <mxPoint x="210" y="110" as="sourcePoint" />
            <mxPoint x="210" y="90" as="targetPoint" />
          </mxGeometry>
        </mxCell>
        <mxCell id="g9L_jU2QSdB-Epxfe-pE-14" value="" style="endArrow=none;html=1;rounded=0;" edge="1" parent="1">
          <mxGeometry width="50" height="50" relative="1" as="geometry">
            <mxPoint x="170" y="110" as="sourcePoint" />
            <mxPoint x="190" y="110" as="targetPoint" />
          </mxGeometry>
        </mxCell>
        <mxCell id="g9L_jU2QSdB-Epxfe-pE-15" value="" style="endArrow=none;html=1;rounded=0;" edge="1" parent="1">
          <mxGeometry width="50" height="50" relative="1" as="geometry">
            <mxPoint x="230" y="110" as="sourcePoint" />
            <mxPoint x="230" y="90" as="targetPoint" />
          </mxGeometry>
        </mxCell>
        <mxCell id="g9L_jU2QSdB-Epxfe-pE-16" value="" style="endArrow=none;html=1;rounded=0;" edge="1" parent="1">
          <mxGeometry width="50" height="50" relative="1" as="geometry">
            <mxPoint x="230" y="90" as="sourcePoint" />
            <mxPoint x="250" y="90" as="targetPoint" />
          </mxGeometry>
        </mxCell>
        <mxCell id="g9L_jU2QSdB-Epxfe-pE-17" value="" style="endArrow=none;html=1;rounded=0;" edge="1" parent="1">
          <mxGeometry width="50" height="50" relative="1" as="geometry">
            <mxPoint x="250" y="110" as="sourcePoint" />
            <mxPoint x="250" y="90" as="targetPoint" />
          </mxGeometry>
        </mxCell>
        <mxCell id="g9L_jU2QSdB-Epxfe-pE-18" value="" style="endArrow=none;html=1;rounded=0;" edge="1" parent="1">
          <mxGeometry width="50" height="50" relative="1" as="geometry">
            <mxPoint x="210" y="110" as="sourcePoint" />
            <mxPoint x="230" y="110" as="targetPoint" />
          </mxGeometry>
        </mxCell>
        <mxCell id="g9L_jU2QSdB-Epxfe-pE-19" value="" style="endArrow=none;html=1;rounded=0;" edge="1" parent="1">
          <mxGeometry width="50" height="50" relative="1" as="geometry">
            <mxPoint x="270" y="110" as="sourcePoint" />
            <mxPoint x="270" y="90" as="targetPoint" />
          </mxGeometry>
        </mxCell>
        <mxCell id="g9L_jU2QSdB-Epxfe-pE-20" value="" style="endArrow=none;html=1;rounded=0;" edge="1" parent="1">
          <mxGeometry width="50" height="50" relative="1" as="geometry">
            <mxPoint x="270" y="90" as="sourcePoint" />
            <mxPoint x="290" y="90" as="targetPoint" />
          </mxGeometry>
        </mxCell>
        <mxCell id="g9L_jU2QSdB-Epxfe-pE-21" value="" style="endArrow=none;html=1;rounded=0;" edge="1" parent="1">
          <mxGeometry width="50" height="50" relative="1" as="geometry">
            <mxPoint x="290" y="110" as="sourcePoint" />
            <mxPoint x="290" y="90" as="targetPoint" />
          </mxGeometry>
        </mxCell>
        <mxCell id="g9L_jU2QSdB-Epxfe-pE-22" value="" style="endArrow=none;html=1;rounded=0;" edge="1" parent="1">
          <mxGeometry width="50" height="50" relative="1" as="geometry">
            <mxPoint x="250" y="110" as="sourcePoint" />
            <mxPoint x="270" y="110" as="targetPoint" />
          </mxGeometry>
        </mxCell>
        <mxCell id="g9L_jU2QSdB-Epxfe-pE-23" value="" style="endArrow=none;html=1;rounded=0;" edge="1" parent="1">
          <mxGeometry width="50" height="50" relative="1" as="geometry">
            <mxPoint x="310" y="110" as="sourcePoint" />
            <mxPoint x="310" y="90" as="targetPoint" />
          </mxGeometry>
        </mxCell>
        <mxCell id="g9L_jU2QSdB-Epxfe-pE-24" value="" style="endArrow=none;html=1;rounded=0;" edge="1" parent="1">
          <mxGeometry width="50" height="50" relative="1" as="geometry">
            <mxPoint x="310" y="90" as="sourcePoint" />
            <mxPoint x="330" y="90" as="targetPoint" />
          </mxGeometry>
        </mxCell>
        <mxCell id="g9L_jU2QSdB-Epxfe-pE-26" value="" style="endArrow=none;html=1;rounded=0;" edge="1" parent="1">
          <mxGeometry width="50" height="50" relative="1" as="geometry">
            <mxPoint x="290" y="110" as="sourcePoint" />
            <mxPoint x="310" y="110" as="targetPoint" />
          </mxGeometry>
        </mxCell>
        <mxCell id="g9L_jU2QSdB-Epxfe-pE-27" value="" style="endArrow=none;html=1;rounded=0;" edge="1" parent="1">
          <mxGeometry width="50" height="50" relative="1" as="geometry">
            <mxPoint x="210" y="65" as="sourcePoint" />
            <mxPoint x="210" y="45" as="targetPoint" />
          </mxGeometry>
        </mxCell>
        <mxCell id="g9L_jU2QSdB-Epxfe-pE-28" value="" style="endArrow=none;html=1;rounded=0;" edge="1" parent="1">
          <mxGeometry width="50" height="50" relative="1" as="geometry">
            <mxPoint x="210" y="65" as="sourcePoint" />
            <mxPoint x="330" y="65" as="targetPoint" />
          </mxGeometry>
        </mxCell>
        <mxCell id="g9L_jU2QSdB-Epxfe-pE-29" value="" style="endArrow=none;html=1;rounded=0;" edge="1" parent="1">
          <mxGeometry width="50" height="50" relative="1" as="geometry">
            <mxPoint x="170" y="205" as="sourcePoint" />
            <mxPoint x="170" y="185" as="targetPoint" />
          </mxGeometry>
        </mxCell>
        <mxCell id="g9L_jU2QSdB-Epxfe-pE-30" value="" style="endArrow=none;html=1;rounded=0;" edge="1" parent="1">
          <mxGeometry width="50" height="50" relative="1" as="geometry">
            <mxPoint x="170" y="205" as="sourcePoint" />
            <mxPoint x="210" y="205" as="targetPoint" />
          </mxGeometry>
        </mxCell>
        <mxCell id="g9L_jU2QSdB-Epxfe-pE-31" value="" style="endArrow=none;html=1;rounded=0;" edge="1" parent="1">
          <mxGeometry width="50" height="50" relative="1" as="geometry">
            <mxPoint x="210" y="205" as="sourcePoint" />
            <mxPoint x="210" y="185" as="targetPoint" />
          </mxGeometry>
        </mxCell>
        <mxCell id="g9L_jU2QSdB-Epxfe-pE-32" value="" style="endArrow=none;html=1;rounded=0;" edge="1" parent="1">
          <mxGeometry width="50" height="50" relative="1" as="geometry">
            <mxPoint x="210" y="185" as="sourcePoint" />
            <mxPoint x="250" y="185" as="targetPoint" />
          </mxGeometry>
        </mxCell>
      </root>
    </mxGraphModel>
  </diagram>
</mxfile>
